<svg id="svg" xmlns="http://www.w3.org/2000/svg" xmlns:xlink="http://www.w3.org/1999/xlink" width="400" height="422.44224422442244" viewBox="0, 0, 400,422.44224422442244"><g id="svgg"><path id="path0" d="M148.436 10.957 C 148.142 11.311,147.654 11.600,147.351 11.600 C 147.048 11.600,146.800 11.870,146.800 12.200 C 146.800 12.530,146.598 12.755,146.352 12.700 C 145.548 12.521,144.443 14.893,144.675 16.300 C 144.808 17.106,144.723 17.600,144.451 17.600 C 144.153 17.600,144.094 18.384,144.268 20.049 C 144.481 22.088,144.413 22.561,143.862 22.869 C 143.498 23.073,143.200 23.681,143.200 24.220 C 143.200 25.346,143.852 25.543,144.124 24.500 C 144.225 24.115,144.328 24.655,144.354 25.700 C 144.389 27.143,144.256 27.600,143.800 27.600 C 143.333 27.600,143.200 28.133,143.200 30.000 C 143.200 32.552,143.819 33.275,144.143 31.100 C 144.249 30.385,144.256 31.690,144.159 34.000 C 144.038 36.895,144.108 38.014,144.385 37.600 C 144.716 37.108,144.789 37.157,144.794 37.876 C 144.797 38.358,144.980 38.864,145.200 39.000 C 145.420 39.136,145.600 40.137,145.600 41.224 C 145.600 42.311,145.780 43.200,146.000 43.200 C 146.537 43.200,146.511 44.929,145.965 45.475 C 145.652 45.788,145.652 45.985,145.965 46.178 C 146.204 46.326,146.400 47.236,146.400 48.200 C 146.400 49.164,146.557 50.050,146.748 50.168 C 146.940 50.286,147.197 50.883,147.319 51.494 C 147.884 54.318,149.713 57.466,150.112 56.300 C 150.206 56.025,150.212 56.220,150.126 56.734 C 150.028 57.309,150.127 57.568,150.384 57.410 C 150.613 57.268,150.800 57.433,150.800 57.776 C 150.800 58.119,150.978 58.400,151.195 58.400 C 151.413 58.400,151.705 59.117,151.845 59.993 C 151.985 60.869,152.255 61.489,152.445 61.372 C 152.635 61.255,152.679 61.450,152.543 61.806 C 152.273 62.508,154.579 65.200,155.450 65.200 C 155.721 65.200,156.241 65.498,156.605 65.862 C 157.676 66.933,160.800 67.042,162.000 66.051 C 163.931 64.455,164.421 63.831,164.198 63.250 C 164.074 62.928,164.152 62.554,164.370 62.419 C 164.588 62.284,164.892 60.649,165.045 58.787 C 165.198 56.924,165.546 55.040,165.817 54.600 C 166.401 53.652,167.025 50.309,166.461 51.150 C 166.230 51.493,166.171 50.028,166.302 47.250 C 166.510 42.864,165.844 40.601,165.493 44.500 L 165.340 46.200 165.270 44.300 C 165.231 43.253,165.380 42.400,165.600 42.400 C 166.041 42.400,166.133 39.538,165.739 38.066 C 165.547 37.348,165.402 37.255,165.111 37.666 C 164.859 38.023,164.802 37.706,164.941 36.707 C 165.151 35.190,164.613 34.207,164.277 35.495 C 164.106 36.150,164.090 36.149,164.046 35.474 C 164.021 35.074,164.170 34.430,164.378 34.042 C 164.635 33.561,164.574 32.987,164.187 32.240 C 163.874 31.637,163.636 31.022,163.657 30.872 C 163.678 30.722,163.661 30.240,163.619 29.800 L 163.544 29.000 163.200 29.800 C 162.872 30.563,162.855 30.559,162.828 29.700 C 162.813 29.205,162.620 28.800,162.400 28.800 C 162.180 28.800,162.000 28.185,162.000 27.433 C 162.000 26.682,161.808 26.003,161.573 25.924 C 161.338 25.846,161.113 24.931,161.073 23.891 C 161.030 22.769,160.812 22.000,160.537 22.000 C 160.272 22.000,160.164 21.659,160.284 21.200 C 160.406 20.735,160.296 20.400,160.023 20.400 C 159.764 20.400,159.661 20.225,159.793 20.011 C 160.090 19.530,158.831 17.534,158.399 17.801 C 158.226 17.907,157.980 17.574,157.851 17.060 C 157.722 16.546,157.190 15.692,156.669 15.163 C 156.147 14.633,155.601 13.708,155.454 13.106 C 155.271 12.353,154.847 11.929,154.094 11.745 C 153.492 11.597,152.900 11.326,152.778 11.141 C 152.304 10.424,148.995 10.283,148.436 10.957 M272.000 35.600 C 272.000 35.820,271.730 36.000,271.400 36.000 C 271.070 36.000,270.800 36.180,270.800 36.400 C 270.800 36.620,270.459 36.800,270.043 36.800 C 269.626 36.800,269.182 37.070,269.055 37.400 C 268.929 37.730,268.594 37.997,268.313 37.994 C 267.949 37.990,267.975 37.864,268.400 37.563 C 268.933 37.186,268.933 37.157,268.400 37.301 C 268.070 37.390,267.619 37.823,267.397 38.264 C 267.175 38.704,266.770 38.990,266.497 38.899 C 266.224 38.808,266.000 38.984,266.000 39.290 C 266.000 39.596,265.717 40.196,265.370 40.624 C 265.024 41.051,264.879 41.130,265.047 40.800 C 265.310 40.285,265.259 40.277,264.681 40.745 C 264.311 41.045,264.106 41.448,264.225 41.641 C 264.344 41.833,264.162 41.884,263.821 41.753 C 263.311 41.557,262.933 42.107,263.300 42.509 C 263.355 42.570,262.995 43.053,262.500 43.585 C 262.005 44.116,261.600 44.708,261.600 44.899 C 261.600 45.091,261.389 45.117,261.132 44.958 C 260.820 44.765,260.747 44.884,260.912 45.314 C 261.075 45.740,260.984 45.892,260.644 45.761 C 260.360 45.653,259.897 45.842,259.615 46.182 C 259.333 46.522,259.236 46.800,259.400 46.800 C 259.564 46.800,259.474 47.070,259.200 47.400 C 258.926 47.730,258.814 48.000,258.951 48.000 C 259.176 48.000,258.886 48.359,256.981 50.434 C 256.662 50.782,256.400 51.378,256.400 51.757 C 256.400 52.182,256.220 52.336,255.932 52.158 C 255.617 51.964,255.548 52.087,255.719 52.534 C 255.860 52.900,255.844 53.200,255.685 53.200 C 255.526 53.200,255.158 53.736,254.868 54.390 C 254.579 55.045,254.144 55.540,253.902 55.490 C 253.661 55.441,253.213 56.255,252.908 57.300 C 252.603 58.345,252.165 59.200,251.934 59.200 C 251.703 59.200,251.612 59.455,251.732 59.767 C 251.852 60.079,251.717 60.423,251.433 60.532 C 250.667 60.826,249.093 63.997,249.706 64.012 C 249.978 64.019,249.877 64.212,249.482 64.442 C 249.033 64.703,248.851 65.129,248.994 65.582 C 249.134 66.023,248.988 66.396,248.619 66.537 C 248.259 66.676,248.113 67.029,248.259 67.410 C 248.413 67.812,248.181 68.278,247.636 68.660 C 247.075 69.052,246.848 69.523,246.996 69.987 C 247.136 70.428,246.984 70.797,246.602 70.944 C 246.163 71.112,246.055 71.478,246.234 72.191 C 246.387 72.805,246.317 73.200,246.053 73.200 C 245.790 73.200,245.710 73.648,245.848 74.342 C 246.013 75.165,245.900 75.553,245.445 75.727 C 245.066 75.873,244.911 76.224,245.057 76.604 C 245.191 76.953,245.026 77.455,244.691 77.719 C 243.958 78.297,243.280 80.245,243.957 79.826 C 244.618 79.418,244.492 79.965,243.756 80.702 C 243.173 81.284,243.171 81.390,243.735 81.802 C 244.279 82.199,244.287 82.395,243.803 83.329 C 243.443 84.022,243.400 84.400,243.681 84.400 C 243.970 84.400,244.033 85.177,243.869 86.742 C 243.635 88.983,243.683 89.153,244.983 90.672 L 246.342 92.260 248.868 91.962 C 250.257 91.798,251.485 91.688,251.597 91.716 C 252.094 91.843,254.771 90.277,254.582 89.971 C 254.300 89.514,255.732 88.111,256.291 88.297 C 256.534 88.378,256.848 88.078,256.990 87.630 C 257.133 87.183,257.452 86.858,257.701 86.908 C 257.950 86.959,258.524 86.280,258.977 85.400 C 259.429 84.520,259.918 83.746,260.063 83.679 C 260.809 83.336,261.952 82.085,261.726 81.859 C 261.583 81.717,261.677 81.600,261.933 81.600 C 262.190 81.600,262.400 81.330,262.400 81.000 C 262.400 80.173,263.734 78.911,264.381 79.127 C 264.714 79.238,264.800 79.124,264.612 78.820 C 264.433 78.530,264.666 78.089,265.191 77.721 C 265.749 77.331,265.997 76.832,265.872 76.353 C 265.763 75.938,265.838 75.700,266.037 75.823 C 266.237 75.946,266.400 75.767,266.400 75.424 C 266.400 75.081,266.599 74.800,266.843 74.800 C 267.086 74.800,267.178 74.521,267.047 74.179 C 266.903 73.802,266.975 73.661,267.231 73.819 C 267.756 74.143,268.841 72.781,268.601 72.100 C 268.504 71.825,268.619 71.600,268.855 71.600 C 269.092 71.600,269.182 71.330,269.055 71.000 C 268.929 70.670,268.999 70.400,269.213 70.400 C 269.426 70.400,269.600 70.046,269.600 69.613 C 269.600 69.074,269.791 68.899,270.205 69.057 C 270.637 69.223,270.739 69.106,270.562 68.645 C 270.421 68.277,270.517 68.000,270.784 68.000 C 271.071 68.000,271.156 67.690,271.001 67.203 C 270.806 66.590,270.893 66.461,271.374 66.645 C 271.718 66.777,272.000 66.798,272.000 66.692 C 272.000 66.585,272.279 65.829,272.621 65.013 C 272.962 64.196,273.084 63.624,272.893 63.743 C 272.701 63.861,272.625 63.409,272.724 62.738 C 272.847 61.901,273.005 61.685,273.230 62.048 C 273.409 62.339,273.611 62.492,273.678 62.388 C 274.437 61.214,274.784 60.298,274.590 59.984 C 274.460 59.773,274.499 59.600,274.679 59.600 C 275.244 59.600,276.071 57.253,275.803 56.409 C 275.655 55.942,275.727 55.600,275.973 55.600 C 276.208 55.600,276.400 55.330,276.400 55.000 C 276.400 54.670,276.580 54.400,276.800 54.400 C 277.020 54.400,277.200 53.961,277.200 53.424 C 277.200 52.887,277.400 52.324,277.644 52.173 C 277.902 52.013,277.998 51.342,277.873 50.573 C 277.742 49.765,277.834 49.189,278.109 49.097 C 278.389 49.004,278.518 48.136,278.448 46.817 C 278.375 45.438,278.511 44.579,278.834 44.379 C 279.568 43.925,279.672 40.129,278.970 39.427 C 278.656 39.114,278.400 38.664,278.400 38.429 C 278.400 38.193,278.220 38.000,278.000 38.000 C 277.780 38.000,277.600 37.807,277.600 37.571 C 277.600 37.018,276.582 36.000,276.029 36.000 C 275.793 36.000,275.600 35.820,275.600 35.600 C 275.600 35.380,274.790 35.200,273.800 35.200 C 272.810 35.200,272.000 35.380,272.000 35.600 M165.600 56.600 C 165.600 57.150,165.780 57.600,166.000 57.600 C 166.220 57.600,166.400 57.150,166.400 56.600 C 166.400 56.050,166.220 55.600,166.000 55.600 C 165.780 55.600,165.600 56.050,165.600 56.600 M47.800 60.296 C 46.700 60.380,45.629 60.617,45.420 60.824 C 45.211 61.031,44.620 61.200,44.107 61.200 C 43.595 61.200,43.067 61.480,42.936 61.823 C 42.804 62.166,42.472 62.360,42.197 62.254 C 41.816 62.108,41.747 62.695,41.906 64.731 C 42.020 66.199,42.268 67.460,42.457 67.533 C 42.646 67.607,42.800 67.826,42.800 68.021 C 42.800 68.216,42.513 68.265,42.163 68.130 C 41.646 67.932,41.694 68.216,42.416 69.631 C 43.491 71.739,44.832 73.600,45.275 73.600 C 45.887 73.600,47.229 75.229,46.967 75.653 C 46.636 76.189,50.397 80.049,50.929 79.720 C 51.146 79.586,51.213 79.655,51.078 79.873 C 50.781 80.355,53.736 83.331,54.125 82.941 C 54.276 82.790,54.400 82.865,54.400 83.106 C 54.400 83.348,54.751 83.657,55.180 83.794 C 55.613 83.931,55.869 84.277,55.755 84.572 C 55.643 84.865,56.057 85.483,56.676 85.947 C 57.294 86.412,57.994 86.951,58.231 87.147 C 58.468 87.342,59.049 87.625,59.523 87.775 C 59.996 87.926,60.342 88.173,60.292 88.324 C 60.241 88.476,60.359 88.600,60.554 88.600 C 60.749 88.600,61.058 89.004,61.240 89.497 C 61.608 90.492,63.810 91.996,64.900 91.999 C 65.285 91.999,65.600 92.263,65.600 92.584 C 65.600 93.276,67.486 95.109,68.543 95.445 C 68.951 95.575,69.632 95.978,70.056 96.341 C 70.807 96.984,70.972 97.047,72.187 97.150 C 72.566 97.182,72.683 97.438,72.518 97.869 C 72.332 98.354,72.427 98.475,72.859 98.309 C 73.201 98.178,73.657 98.400,73.924 98.827 C 74.511 99.767,76.161 100.614,78.082 100.961 C 79.237 101.170,79.508 101.374,79.312 101.884 C 79.124 102.376,79.228 102.475,79.731 102.282 C 80.160 102.117,80.400 102.226,80.400 102.586 C 80.400 103.249,81.793 103.775,82.458 103.364 C 82.732 103.195,82.816 103.250,82.662 103.499 C 82.289 104.103,84.976 105.584,85.972 105.323 C 86.444 105.200,86.800 105.299,86.800 105.553 C 86.800 105.799,87.160 106.000,87.600 106.000 C 88.040 106.000,88.776 106.376,89.235 106.835 C 89.806 107.406,90.363 107.596,91.002 107.435 C 91.514 107.307,91.994 107.383,92.068 107.604 C 92.418 108.654,100.935 108.551,102.160 107.482 C 103.414 106.390,103.570 100.723,102.368 99.980 C 102.101 99.816,101.992 99.398,102.124 99.053 C 102.411 98.305,101.765 97.772,101.450 98.498 C 101.330 98.774,101.330 98.520,101.451 97.934 C 101.630 97.059,101.288 96.442,99.535 94.478 C 98.361 93.163,96.860 91.436,96.200 90.639 C 95.540 89.843,94.766 89.281,94.479 89.391 C 94.178 89.507,94.071 89.409,94.226 89.158 C 94.570 88.601,91.175 85.124,90.529 85.372 C 90.217 85.492,90.130 85.327,90.288 84.914 C 90.432 84.539,90.370 84.371,90.141 84.513 C 89.711 84.778,87.600 83.009,87.600 82.384 C 87.600 82.173,87.330 82.000,87.000 82.000 C 86.670 82.000,86.400 81.809,86.400 81.576 C 86.400 81.343,86.216 81.267,85.990 81.406 C 85.765 81.545,85.630 81.449,85.690 81.193 C 85.751 80.936,85.455 80.517,85.032 80.263 C 84.610 80.008,83.729 79.206,83.073 78.480 C 82.394 77.727,81.640 77.252,81.320 77.375 C 81.011 77.494,80.868 77.413,81.003 77.195 C 81.137 76.978,80.986 76.800,80.666 76.800 C 80.347 76.800,79.967 76.490,79.821 76.111 C 79.595 75.521,79.504 75.507,79.185 76.011 C 78.870 76.508,78.811 76.494,78.806 75.916 C 78.798 74.960,76.755 73.160,75.963 73.412 C 75.606 73.525,75.085 73.344,74.807 73.009 C 74.529 72.674,74.060 72.400,73.764 72.400 C 73.465 72.400,73.321 72.149,73.441 71.836 C 73.572 71.497,73.327 71.167,72.829 71.009 C 72.373 70.864,72.000 70.566,72.000 70.346 C 72.000 70.126,71.640 70.060,71.200 70.200 C 70.741 70.346,70.400 70.272,70.400 70.027 C 70.400 69.792,70.053 69.600,69.629 69.600 C 69.204 69.600,68.587 69.330,68.257 69.000 C 67.927 68.670,67.464 68.400,67.229 68.400 C 66.993 68.400,66.800 68.234,66.800 68.032 C 66.800 67.829,66.270 67.547,65.623 67.405 C 64.775 67.219,64.512 66.973,64.683 66.527 C 64.872 66.035,64.724 65.963,63.961 66.180 C 63.222 66.389,63.139 66.355,63.600 66.032 C 63.930 65.801,64.110 65.597,64.000 65.578 C 63.890 65.559,63.080 65.457,62.200 65.352 C 61.320 65.247,60.540 64.990,60.467 64.781 C 60.393 64.571,60.078 64.400,59.767 64.400 C 59.455 64.400,59.200 64.231,59.200 64.025 C 59.200 63.818,58.345 63.513,57.300 63.347 C 56.255 63.181,55.715 62.977,56.100 62.893 C 57.204 62.654,56.931 62.245,55.149 61.474 C 54.147 61.039,53.068 60.853,52.400 61.000 C 51.615 61.172,51.233 61.064,51.063 60.621 C 50.932 60.279,50.594 60.032,50.313 60.072 C 50.031 60.112,48.900 60.213,47.800 60.296 M168.000 86.389 C 167.670 86.608,166.110 86.791,164.533 86.794 C 162.907 86.797,161.607 86.980,161.528 87.217 C 161.447 87.459,159.763 87.668,157.490 87.717 C 154.562 87.779,153.639 87.924,153.783 88.300 C 153.897 88.596,153.653 88.800,153.187 88.800 C 152.754 88.800,152.400 88.980,152.400 89.200 C 152.400 89.420,152.136 89.600,151.813 89.600 C 151.468 89.600,151.316 89.364,151.444 89.029 C 151.733 88.277,149.999 88.655,149.327 89.491 C 149.066 89.815,148.663 89.963,148.431 89.819 C 148.175 89.661,148.103 89.802,148.247 90.179 C 148.402 90.582,148.259 90.800,147.843 90.800 C 147.489 90.800,147.200 90.626,147.200 90.413 C 147.200 90.199,146.930 90.129,146.600 90.255 C 146.270 90.382,146.000 90.728,146.000 91.025 C 146.000 91.324,145.376 91.681,144.596 91.827 C 143.823 91.972,143.103 92.233,142.995 92.408 C 142.887 92.582,142.409 92.623,141.932 92.498 C 141.262 92.323,141.120 92.414,141.305 92.896 C 141.541 93.511,140.618 93.990,139.200 93.988 C 138.667 93.988,138.667 93.945,139.200 93.600 C 139.530 93.387,139.597 93.209,139.349 93.206 C 139.101 93.203,138.674 93.470,138.400 93.800 C 138.126 94.130,137.642 94.400,137.325 94.400 C 136.190 94.400,135.036 95.251,135.646 95.637 C 136.086 95.916,136.056 95.989,135.500 95.994 C 135.115 95.997,134.800 96.180,134.800 96.400 C 134.800 96.620,134.524 96.800,134.187 96.800 C 133.851 96.800,133.471 97.070,133.345 97.400 C 133.218 97.730,132.684 98.000,132.157 98.000 C 131.631 98.000,131.200 98.191,131.200 98.424 C 131.200 98.657,131.036 98.746,130.835 98.622 C 130.287 98.283,127.972 99.728,128.179 100.280 C 128.278 100.543,128.143 100.676,127.878 100.575 C 127.614 100.473,127.058 100.842,126.643 101.395 C 126.228 101.948,125.543 102.400,125.120 102.400 C 124.636 102.400,124.460 102.573,124.642 102.868 C 124.840 103.189,124.708 103.250,124.221 103.063 C 123.712 102.868,123.572 102.949,123.726 103.350 C 123.874 103.736,123.715 103.851,123.214 103.719 C 122.669 103.577,122.153 104.088,121.150 105.765 C 120.385 107.043,119.529 108.000,119.149 108.000 C 118.784 108.000,118.383 108.267,118.258 108.593 C 118.133 108.920,117.782 109.091,117.479 108.975 C 116.890 108.749,116.151 109.427,115.933 110.392 C 115.743 111.233,114.954 112.000,114.278 112.000 C 113.476 112.000,112.668 113.063,113.027 113.644 C 113.201 113.925,113.155 114.019,112.915 113.871 C 112.395 113.550,111.226 114.826,111.009 115.952 C 110.809 116.992,110.018 117.800,109.200 117.800 C 108.786 117.800,108.619 118.172,108.662 119.000 C 108.697 119.660,108.637 119.975,108.529 119.700 C 108.211 118.888,107.705 119.126,107.432 120.216 C 107.291 120.775,107.019 121.135,106.827 121.017 C 106.516 120.824,105.547 122.083,102.494 126.646 C 101.996 127.391,101.696 128.000,101.828 128.000 C 101.959 128.000,101.494 128.724,100.794 129.608 C 100.081 130.508,99.620 131.476,99.748 131.808 C 99.873 132.134,99.801 132.400,99.587 132.400 C 99.374 132.400,99.200 132.588,99.200 132.817 C 99.200 133.046,98.840 133.620,98.400 134.092 C 97.960 134.564,97.600 135.187,97.600 135.475 C 97.600 135.764,97.428 136.000,97.218 136.000 C 97.008 136.000,96.712 136.675,96.560 137.500 C 96.409 138.325,96.155 139.090,95.996 139.200 C 95.453 139.577,95.067 141.329,95.600 141.000 C 95.956 140.780,96.007 140.954,95.790 141.650 C 95.627 142.172,95.338 142.660,95.147 142.733 C 94.956 142.807,94.800 143.192,94.800 143.591 C 94.800 143.989,94.558 144.407,94.263 144.520 C 93.276 144.899,92.344 147.483,92.612 149.099 C 92.777 150.099,92.733 150.419,92.480 150.057 C 91.805 149.093,91.402 150.391,91.472 153.300 C 91.507 154.785,91.371 156.000,91.168 156.000 C 90.966 156.000,90.800 156.431,90.800 156.957 C 90.800 157.484,90.530 158.018,90.200 158.145 C 89.870 158.271,89.600 158.795,89.600 159.307 C 89.600 159.820,89.423 160.417,89.207 160.633 C 88.991 160.849,88.640 162.640,88.426 164.613 C 88.213 166.586,87.920 168.783,87.775 169.495 C 87.434 171.166,87.851 172.453,88.453 171.589 C 88.754 171.156,88.794 171.319,88.603 172.200 C 88.461 172.860,88.246 175.153,88.126 177.295 C 88.006 179.437,87.748 181.092,87.554 180.971 C 87.359 180.851,87.200 181.134,87.200 181.600 C 87.200 182.091,87.377 182.338,87.621 182.187 C 87.908 182.010,88.028 183.439,87.999 186.663 C 87.941 192.981,87.923 192.738,88.400 192.000 C 88.686 191.558,88.789 191.827,88.794 193.020 C 88.797 193.911,88.987 194.827,89.215 195.055 C 89.450 195.290,89.657 197.623,89.691 200.435 C 89.724 203.166,89.888 205.670,90.055 206.000 C 90.222 206.330,90.469 207.451,90.603 208.491 C 90.737 209.531,91.016 210.486,91.223 210.614 C 91.430 210.742,91.600 211.377,91.600 212.024 C 91.600 212.671,91.780 213.200,92.000 213.200 C 92.220 213.200,92.400 213.650,92.400 214.200 C 92.400 215.443,93.184 215.536,93.243 214.300 C 93.266 213.805,93.462 214.210,93.678 215.200 C 93.894 216.190,94.235 217.171,94.435 217.380 C 94.636 217.589,94.800 218.159,94.800 218.647 C 94.800 219.134,94.958 219.593,95.151 219.667 C 95.345 219.740,95.634 220.408,95.794 221.150 C 95.999 222.097,95.953 222.418,95.643 222.226 C 94.922 221.781,95.099 222.277,97.225 226.651 C 98.495 229.264,99.414 230.715,99.693 230.543 C 99.978 230.367,100.047 230.502,99.885 230.922 C 99.748 231.281,99.784 231.666,99.966 231.779 C 100.148 231.891,100.406 232.529,100.539 233.197 C 100.673 233.864,101.438 235.443,102.239 236.705 C 104.066 239.581,103.969 239.489,104.434 238.788 C 104.712 238.369,104.750 238.520,104.565 239.316 C 104.422 239.929,104.462 240.403,104.653 240.368 C 105.567 240.202,106.000 240.469,106.000 241.200 C 106.000 241.640,106.183 242.000,106.408 242.000 C 106.632 242.000,106.721 242.405,106.605 242.900 C 106.339 244.040,108.600 247.762,109.377 247.464 C 109.742 247.324,109.846 247.502,109.708 248.030 C 109.487 248.875,110.201 249.104,110.551 248.300 C 110.670 248.025,110.684 248.340,110.582 249.000 C 110.479 249.660,110.501 249.977,110.630 249.704 C 110.984 248.954,112.000 250.123,112.000 251.280 C 112.000 252.422,114.293 255.313,114.900 254.938 C 115.184 254.763,115.241 254.917,115.063 255.379 C 114.862 255.905,114.946 256.029,115.391 255.859 C 115.796 255.703,116.072 255.949,116.239 256.614 C 116.375 257.156,116.642 257.600,116.831 257.600 C 117.020 257.600,117.059 257.901,116.918 258.269 C 116.726 258.771,116.824 258.876,117.310 258.690 C 117.746 258.523,117.893 258.614,117.757 258.969 C 117.645 259.259,117.834 259.777,118.177 260.120 C 118.520 260.463,118.800 260.852,118.800 260.985 C 118.800 261.118,119.420 261.847,120.178 262.605 C 120.936 263.363,122.007 264.752,122.558 265.692 C 123.811 267.830,126.715 270.798,127.562 270.806 C 128.082 270.811,128.098 270.877,127.647 271.163 C 126.841 271.673,130.376 276.394,131.572 276.406 C 132.638 276.417,133.232 277.020,133.373 278.235 C 133.563 279.867,133.564 279.868,134.044 279.200 C 134.406 278.697,134.438 278.716,134.244 279.316 C 133.947 280.237,134.796 281.600,135.668 281.600 C 136.661 281.600,137.692 282.803,137.460 283.691 C 137.319 284.231,137.424 284.400,137.809 284.252 C 138.167 284.115,138.282 284.243,138.137 284.620 C 138.014 284.939,138.114 285.200,138.357 285.200 C 138.601 285.200,138.800 285.433,138.800 285.719 C 138.800 286.244,139.358 287.073,141.243 289.343 C 141.817 290.035,143.144 291.860,144.193 293.400 C 147.230 297.857,147.593 298.259,147.997 297.605 C 148.262 297.176,148.410 297.300,148.616 298.121 C 148.765 298.714,149.047 299.200,149.243 299.200 C 149.440 299.200,149.600 299.470,149.600 299.800 C 149.600 300.130,149.735 300.400,149.900 300.401 C 150.065 300.401,150.218 300.896,150.241 301.501 C 150.301 303.108,154.080 308.684,154.458 307.724 C 154.705 307.098,154.748 307.091,154.772 307.667 C 154.787 308.033,154.990 308.397,155.222 308.474 C 155.455 308.552,155.703 309.422,155.774 310.407 C 155.911 312.302,158.932 318.800,159.676 318.800 C 159.901 318.800,159.984 319.064,159.860 319.387 C 159.736 319.710,159.793 320.072,159.987 320.192 C 160.181 320.312,160.422 320.093,160.523 319.705 C 160.676 319.119,160.715 319.138,160.754 319.820 C 160.779 320.271,160.998 320.838,161.241 321.081 C 161.483 321.323,161.745 322.394,161.823 323.461 C 161.975 325.559,162.603 328.519,163.166 329.800 C 163.360 330.240,163.807 331.257,164.159 332.060 C 164.512 332.864,164.800 333.978,164.800 334.537 C 164.800 335.096,164.980 335.664,165.200 335.800 C 165.420 335.936,165.600 336.566,165.600 337.200 C 165.600 337.834,165.780 338.464,166.000 338.600 C 166.243 338.750,166.400 338.182,166.400 337.157 C 166.400 334.051,166.846 335.867,166.965 339.457 C 167.030 341.406,167.202 342.910,167.347 342.800 C 168.063 342.258,168.870 345.093,168.685 347.500 C 168.579 348.875,168.631 350.000,168.801 350.000 C 168.970 350.000,169.235 350.585,169.388 351.300 C 169.870 353.550,170.085 357.200,169.736 357.199 C 169.551 357.199,169.460 358.369,169.534 359.799 C 169.695 362.909,170.375 363.278,170.460 360.300 C 170.493 359.145,170.759 361.710,171.053 366.000 C 171.861 377.833,171.996 378.909,172.740 379.453 C 173.103 379.718,173.400 380.160,173.400 380.434 C 173.400 380.709,173.625 381.008,173.900 381.100 C 174.214 381.205,174.400 380.882,174.400 380.233 C 174.400 379.665,174.580 379.200,174.800 379.200 C 175.020 379.200,175.200 378.930,175.200 378.600 C 175.200 378.270,175.380 378.000,175.600 378.000 C 175.820 378.000,176.013 377.685,176.028 377.300 C 176.052 376.696,176.108 376.710,176.433 377.400 C 176.691 377.948,176.739 377.413,176.585 375.700 C 176.443 374.123,176.511 373.200,176.768 373.200 C 176.992 373.200,177.090 373.425,176.987 373.700 C 176.884 373.975,177.286 374.425,177.880 374.700 C 179.240 375.330,180.000 375.337,180.000 374.720 C 180.000 374.347,180.107 374.347,180.480 374.720 C 180.744 374.984,181.363 375.200,181.856 375.200 C 182.349 375.200,182.851 375.359,182.971 375.553 C 183.091 375.747,184.406 376.051,185.894 376.229 C 187.382 376.407,188.195 376.621,187.700 376.704 C 186.630 376.884,186.487 377.600,187.520 377.600 C 187.916 377.600,188.411 377.757,188.620 377.949 C 189.526 378.782,193.694 378.804,193.478 377.975 C 193.366 377.549,193.438 377.200,193.637 377.200 C 193.992 377.200,194.147 377.753,194.043 378.643 C 193.996 379.044,197.371 379.600,199.859 379.600 C 200.954 379.600,201.125 378.944,200.100 378.676 C 199.715 378.575,200.210 378.486,201.200 378.478 C 202.190 378.470,202.775 378.554,202.500 378.665 C 201.512 379.064,202.028 379.600,203.400 379.600 C 204.170 379.600,204.800 379.420,204.800 379.200 C 204.800 378.980,204.440 378.800,204.000 378.800 C 201.126 378.800,203.947 378.105,207.041 378.051 C 209.154 378.014,211.212 377.807,211.615 377.592 C 212.018 377.376,213.223 377.200,214.294 377.200 C 215.364 377.200,216.411 377.043,216.620 376.851 C 217.288 376.237,221.513 375.939,221.697 376.492 C 221.824 376.873,222.081 376.879,222.831 376.519 C 223.564 376.168,223.629 376.048,223.100 376.027 C 222.715 376.012,222.400 375.820,222.400 375.600 C 222.400 375.021,223.896 375.107,224.136 375.700 C 224.293 376.087,224.427 376.075,224.725 375.649 C 224.937 375.346,225.299 375.214,225.530 375.357 C 225.980 375.635,230.400 373.627,230.400 373.144 C 230.400 372.986,229.995 372.782,229.500 372.691 C 229.005 372.600,229.365 372.536,230.301 372.548 C 231.969 372.570,233.697 371.563,233.070 370.936 C 232.914 370.781,232.574 370.866,232.313 371.127 C 232.053 371.387,231.683 371.600,231.491 371.600 C 230.909 371.600,232.178 370.524,233.108 370.229 C 233.587 370.077,234.325 369.513,234.747 368.976 C 235.170 368.439,235.704 368.000,235.934 368.000 C 236.164 368.000,236.481 367.792,236.638 367.538 C 236.815 367.252,236.748 367.185,236.462 367.362 C 235.818 367.760,235.881 366.997,236.537 366.452 C 236.832 366.207,237.214 366.140,237.386 366.303 C 237.559 366.467,237.575 366.194,237.422 365.698 C 237.227 365.063,237.331 364.725,237.772 364.555 C 238.977 364.093,238.584 361.106,237.100 359.447 C 236.385 358.647,235.477 357.544,235.081 356.996 C 234.686 356.448,234.178 356.000,233.953 356.000 C 233.727 356.000,233.834 356.291,234.190 356.648 C 234.547 357.004,234.755 357.379,234.652 357.481 C 234.327 357.806,231.200 354.427,231.200 353.751 C 231.200 353.253,231.325 353.206,231.737 353.548 C 232.163 353.901,232.366 353.683,232.717 352.497 C 233.459 349.991,233.684 348.512,233.218 349.200 C 232.872 349.711,232.811 349.692,232.806 349.071 C 232.803 348.671,233.070 348.073,233.400 347.743 C 234.088 347.055,234.186 346.400,233.600 346.400 C 233.380 346.400,233.200 345.860,233.200 345.200 C 233.200 344.540,233.380 344.000,233.600 344.000 C 233.820 344.000,234.000 343.286,234.000 342.414 C 234.000 341.492,234.398 340.111,234.951 339.114 C 236.060 337.115,236.656 334.800,236.061 334.800 C 235.840 334.800,235.576 335.115,235.476 335.500 C 235.363 335.931,235.275 335.777,235.246 335.100 C 235.215 334.347,235.398 334.000,235.829 334.000 C 236.358 334.000,236.414 333.650,236.183 331.800 C 235.993 330.284,236.047 329.600,236.354 329.600 C 236.599 329.600,236.800 329.229,236.800 328.776 C 236.800 328.249,236.631 328.057,236.332 328.242 C 236.002 328.446,235.957 328.305,236.177 327.766 C 236.350 327.345,236.593 326.640,236.718 326.200 C 236.843 325.760,237.182 325.162,237.472 324.871 C 238.102 324.241,238.146 323.737,237.600 323.400 C 237.380 323.264,237.221 322.758,237.246 322.276 C 237.282 321.600,237.334 321.559,237.476 322.100 C 237.811 323.385,238.317 322.821,238.551 320.900 C 238.978 317.395,239.098 316.607,239.412 315.238 C 239.659 314.162,239.615 313.944,239.200 314.200 C 238.790 314.453,238.733 314.237,238.938 313.212 C 239.082 312.490,239.200 311.113,239.200 310.150 C 239.200 308.805,239.350 308.400,239.847 308.400 C 240.317 308.400,240.442 308.133,240.306 307.420 C 240.194 306.836,240.297 306.472,240.559 306.520 C 241.028 306.605,241.150 305.932,241.315 302.350 C 241.372 301.113,241.659 299.810,241.954 299.455 C 242.263 299.083,242.368 298.512,242.202 298.105 C 241.936 297.454,241.889 297.462,241.585 298.200 C 241.272 298.961,241.255 298.956,241.228 298.100 C 241.213 297.605,241.355 297.200,241.545 297.200 C 241.735 297.200,241.987 296.003,242.104 294.539 C 242.258 292.624,242.506 291.773,242.988 291.503 C 243.516 291.207,243.602 290.797,243.394 289.564 C 243.174 288.262,243.242 288.000,243.800 288.000 C 244.362 288.000,244.426 287.738,244.196 286.375 C 243.979 285.094,244.078 284.574,244.661 283.917 C 245.196 283.313,245.262 283.035,244.900 282.908 C 244.218 282.670,244.269 281.274,244.987 280.556 C 245.361 280.182,245.503 279.504,245.379 278.685 C 245.239 277.761,245.280 277.617,245.523 278.173 C 245.757 278.708,245.952 278.801,246.155 278.473 C 246.316 278.213,246.339 277.825,246.207 277.612 C 246.075 277.398,246.250 276.677,246.596 276.008 C 247.093 275.046,247.128 274.613,246.761 273.928 C 246.384 273.223,246.421 272.974,246.962 272.579 C 247.478 272.201,247.566 271.731,247.361 270.447 C 247.183 269.336,247.244 268.800,247.549 268.800 C 247.797 268.800,248.000 268.519,248.000 268.176 C 248.000 267.833,247.819 267.665,247.597 267.802 C 247.095 268.112,247.906 266.176,248.880 264.738 C 249.276 264.154,249.600 263.130,249.600 262.462 C 249.600 261.794,249.782 261.135,250.004 260.997 C 250.227 260.860,250.382 260.264,250.349 259.674 C 250.316 259.083,250.418 258.060,250.577 257.400 C 250.807 256.440,250.771 256.320,250.395 256.800 C 249.995 257.311,249.960 257.291,250.162 256.667 C 250.293 256.264,250.421 255.274,250.446 254.467 C 250.472 253.660,250.575 253.315,250.676 253.700 C 251.025 255.036,251.640 254.419,251.374 253.000 C 251.170 251.913,251.243 251.600,251.702 251.600 C 252.409 251.600,253.319 248.188,253.250 245.800 C 253.171 243.046,253.591 240.822,254.150 241.036 C 254.734 241.260,255.749 239.339,255.219 239.012 C 255.026 238.893,254.777 239.021,254.666 239.298 C 254.544 239.601,254.451 239.522,254.432 239.100 C 254.414 238.715,254.649 238.400,254.953 238.400 C 255.493 238.400,255.957 237.411,256.172 235.800 C 256.231 235.360,256.415 234.685,256.582 234.300 C 256.759 233.892,256.715 233.600,256.476 233.600 C 256.251 233.600,255.976 233.825,255.865 234.100 C 255.744 234.399,255.650 234.318,255.632 233.900 C 255.614 233.515,255.780 233.200,256.000 233.200 C 256.220 233.200,256.400 232.917,256.400 232.571 C 256.400 232.226,256.662 231.681,256.983 231.360 C 257.304 231.039,257.461 230.503,257.333 230.169 C 257.204 229.834,257.405 229.338,257.782 229.063 C 258.159 228.787,258.528 227.876,258.607 227.027 C 258.686 226.182,258.932 225.308,259.153 225.087 C 259.375 224.865,259.458 224.191,259.338 223.590 C 259.217 222.986,259.317 222.375,259.561 222.224 C 259.804 222.074,259.899 221.536,259.772 221.030 C 259.612 220.392,259.744 220.030,260.202 219.855 C 260.703 219.662,260.808 219.285,260.633 218.300 C 260.463 217.346,260.497 217.213,260.758 217.800 C 261.318 219.058,261.734 217.629,261.769 214.329 C 261.784 212.828,261.933 211.600,262.099 211.600 C 262.264 211.600,262.400 210.880,262.400 210.000 C 262.400 209.120,262.551 208.400,262.736 208.400 C 263.214 208.400,264.000 206.538,264.000 205.405 C 264.000 204.878,264.182 204.335,264.404 204.197 C 264.627 204.060,264.801 203.464,264.792 202.874 C 264.783 202.283,264.873 201.170,264.991 200.400 C 265.154 199.337,265.116 199.193,264.831 199.800 C 264.489 200.530,264.454 200.508,264.428 199.543 C 264.412 198.935,264.665 198.384,265.022 198.247 C 265.461 198.079,265.538 197.819,265.285 197.366 C 264.869 196.622,265.126 194.800,265.647 194.800 C 265.841 194.800,266.000 194.339,266.000 193.776 C 266.000 193.196,265.827 192.860,265.600 193.000 C 265.380 193.136,265.200 193.057,265.200 192.824 C 265.200 192.591,265.375 192.400,265.589 192.400 C 266.035 192.400,266.779 189.973,266.491 189.457 C 266.386 189.269,266.145 189.359,265.956 189.657 C 265.702 190.058,265.611 189.976,265.606 189.343 C 265.603 188.871,265.870 188.382,266.200 188.255 C 266.859 188.002,267.036 185.793,266.427 185.417 C 266.222 185.290,265.974 185.684,265.876 186.293 C 265.778 186.902,265.700 184.858,265.704 181.751 C 265.707 178.644,265.586 175.901,265.435 175.656 C 265.283 175.411,265.144 173.363,265.125 171.105 C 265.105 168.639,264.965 167.319,264.774 167.800 C 264.509 168.468,264.452 168.399,264.428 167.380 C 264.413 166.709,264.209 165.969,263.976 165.736 C 263.744 165.504,263.493 163.713,263.421 161.756 C 263.325 159.191,263.151 158.232,262.794 158.317 C 262.463 158.395,262.366 158.091,262.499 157.393 C 262.646 156.625,262.555 156.409,262.149 156.564 C 261.514 156.808,261.386 155.574,261.984 154.976 C 262.230 154.730,262.058 153.692,261.506 152.096 C 260.619 149.529,260.208 149.080,259.858 150.300 C 259.748 150.685,259.759 150.299,259.884 149.442 C 260.022 148.495,259.960 147.977,259.728 148.121 C 259.509 148.256,259.402 147.894,259.478 147.279 C 259.650 145.883,258.544 144.319,258.004 145.194 C 257.735 145.629,257.568 145.339,257.368 144.092 C 257.220 143.161,256.941 142.400,256.749 142.400 C 256.557 142.400,256.400 141.950,256.400 141.400 C 256.400 140.850,256.184 140.400,255.920 140.400 C 255.565 140.400,255.557 140.283,255.889 139.951 C 256.309 139.531,255.884 137.833,255.200 137.200 C 255.081 137.090,254.750 136.469,254.464 135.821 C 254.042 134.862,253.868 134.750,253.535 135.221 C 253.207 135.683,253.173 135.651,253.364 135.064 C 253.683 134.080,253.216 133.347,252.724 134.057 C 252.462 134.435,252.424 134.327,252.601 133.700 C 252.750 133.171,252.678 132.800,252.427 132.800 C 252.192 132.800,251.997 132.485,251.994 132.100 C 251.989 131.502,251.931 131.487,251.600 132.000 C 251.269 132.513,251.211 132.498,251.206 131.900 C 251.203 131.515,251.040 131.200,250.845 131.200 C 250.649 131.200,250.371 130.570,250.226 129.800 C 250.082 129.030,249.798 128.400,249.594 128.400 C 249.391 128.400,249.320 128.153,249.436 127.851 C 249.557 127.536,248.698 126.323,247.423 125.006 C 246.200 123.744,245.200 122.551,245.200 122.355 C 245.200 122.160,245.020 122.000,244.800 122.000 C 244.580 122.000,244.400 121.666,244.400 121.258 C 244.400 120.851,243.950 120.031,243.400 119.438 C 242.850 118.844,242.400 118.200,242.400 118.006 C 242.400 117.813,242.022 117.534,241.561 117.387 C 240.609 117.086,239.166 115.768,239.462 115.471 C 239.912 115.021,233.413 108.571,232.588 108.650 C 232.271 108.681,232.157 108.455,232.301 108.081 C 232.474 107.631,232.361 107.529,231.890 107.710 C 231.411 107.894,231.306 107.790,231.488 107.314 C 231.644 106.909,231.575 106.768,231.304 106.936 C 230.626 107.355,229.695 106.826,229.432 105.871 C 229.181 104.963,226.765 103.200,225.772 103.200 C 225.458 103.200,225.200 103.001,225.200 102.757 C 225.200 102.514,224.952 102.409,224.650 102.526 C 224.314 102.654,224.119 102.485,224.150 102.093 C 224.181 101.692,223.711 101.306,222.900 101.067 C 222.185 100.857,221.600 100.457,221.600 100.180 C 221.600 99.864,221.262 99.749,220.700 99.872 C 220.040 100.017,219.946 99.966,220.348 99.681 C 221.070 99.170,219.834 98.414,218.743 98.699 C 218.334 98.806,218.000 98.692,218.000 98.447 C 218.000 98.201,217.730 98.000,217.400 98.000 C 217.070 98.000,216.800 97.823,216.800 97.608 C 216.800 97.392,216.350 97.102,215.800 96.964 C 215.250 96.826,214.800 96.561,214.800 96.375 C 214.800 96.189,214.170 95.918,213.400 95.774 C 212.630 95.629,212.000 95.351,212.000 95.155 C 212.000 94.960,211.730 94.800,211.400 94.800 C 211.070 94.800,210.800 94.622,210.800 94.405 C 210.800 94.187,210.080 93.894,209.200 93.754 C 208.320 93.613,207.600 93.341,207.600 93.149 C 207.600 92.957,207.330 92.800,207.000 92.800 C 206.670 92.800,206.399 92.575,206.398 92.300 C 206.397 91.986,205.690 91.759,204.498 91.690 C 203.454 91.629,202.540 91.404,202.467 91.190 C 202.393 90.975,201.999 90.800,201.590 90.800 C 201.182 90.800,200.746 90.637,200.623 90.437 C 200.500 90.238,199.454 89.935,198.300 89.765 C 197.145 89.594,196.515 89.384,196.900 89.298 C 198.325 88.979,197.606 88.294,196.100 88.536 C 195.219 88.678,194.824 88.638,195.143 88.439 C 196.181 87.791,194.782 87.487,190.948 87.529 C 188.788 87.552,187.200 87.406,187.200 87.185 C 187.200 86.973,186.345 86.797,185.300 86.794 C 183.846 86.789,183.541 86.688,184.000 86.362 C 184.441 86.048,184.123 86.009,182.800 86.212 C 181.810 86.364,180.820 86.448,180.600 86.400 C 179.090 86.068,168.496 86.059,168.000 86.389 M186.200 98.253 C 187.960 98.602,189.571 99.048,189.780 99.244 C 189.989 99.440,190.622 99.600,191.186 99.600 C 194.875 99.600,206.921 105.189,214.425 110.382 C 220.113 114.319,228.696 123.003,232.693 128.867 C 235.636 133.184,241.600 144.437,241.600 145.673 C 241.600 146.047,241.759 146.451,241.952 146.570 C 242.146 146.690,242.398 147.196,242.512 147.694 C 242.627 148.192,243.098 149.587,243.560 150.794 C 244.022 152.001,244.400 153.450,244.400 154.014 C 244.400 154.578,244.597 155.237,244.839 155.479 C 245.080 155.720,245.425 156.971,245.605 158.259 C 245.785 159.546,246.121 161.331,246.352 162.225 C 247.578 166.985,248.616 188.000,247.625 188.000 C 247.418 188.000,247.271 188.405,247.298 188.900 C 247.408 190.942,247.177 192.833,246.843 192.626 C 246.307 192.295,246.065 193.898,246.228 196.700 C 246.316 198.215,246.213 199.200,245.968 199.200 C 245.721 199.200,245.668 199.754,245.830 200.621 C 246.026 201.666,245.934 202.168,245.479 202.521 C 244.790 203.056,243.621 206.723,243.892 207.500 C 243.988 207.775,243.884 208.000,243.661 208.000 C 243.394 208.000,243.383 208.443,243.628 209.297 C 244.162 211.161,244.089 212.400,243.443 212.400 C 242.866 212.400,242.224 213.471,242.341 214.239 C 242.377 214.481,242.144 215.426,241.821 216.339 C 241.499 217.253,241.407 218.000,241.618 218.000 C 241.828 218.000,242.000 218.264,242.000 218.587 C 242.000 218.944,241.765 219.085,241.402 218.945 C 240.902 218.753,240.847 219.028,241.064 220.618 C 241.281 222.195,241.199 222.611,240.586 223.060 C 240.180 223.357,240.061 223.600,240.324 223.600 C 240.586 223.600,240.800 224.050,240.800 224.600 C 240.800 225.150,240.573 225.600,240.296 225.600 C 240.019 225.600,239.567 225.961,239.292 226.401 C 238.897 227.034,238.896 227.181,239.286 227.101 C 239.558 227.046,239.844 227.450,239.922 228.000 C 240.061 228.984,240.052 228.987,239.399 228.200 C 238.936 227.642,238.794 227.592,238.930 228.035 C 239.037 228.385,238.845 229.249,238.503 229.955 C 238.034 230.923,237.994 231.354,238.340 231.700 C 238.904 232.264,238.954 235.200,238.400 235.200 C 238.180 235.200,238.000 235.650,238.000 236.200 C 238.000 236.750,237.820 237.200,237.600 237.200 C 237.380 237.200,237.200 237.481,237.200 237.824 C 237.200 238.167,237.380 238.336,237.600 238.200 C 237.820 238.064,238.000 238.143,238.000 238.376 C 238.000 238.609,237.820 238.800,237.600 238.800 C 237.380 238.800,237.200 239.081,237.200 239.424 C 237.200 239.767,237.041 239.949,236.846 239.828 C 236.651 239.708,236.397 240.102,236.282 240.704 C 236.167 241.306,236.263 241.915,236.495 242.059 C 237.100 242.433,236.548 243.600,235.766 243.600 C 235.281 243.600,235.157 243.861,235.296 244.588 C 235.399 245.131,235.344 245.489,235.173 245.384 C 235.002 245.278,234.928 246.492,235.008 248.082 C 235.090 249.700,234.973 251.191,234.744 251.468 C 234.518 251.739,234.457 252.349,234.607 252.823 C 234.880 253.683,233.742 256.400,233.109 256.400 C 232.550 256.400,232.786 257.301,233.500 257.889 C 234.163 258.435,234.162 258.453,233.474 258.235 C 232.896 258.052,232.798 258.165,232.996 258.787 C 233.133 259.218,233.063 259.909,232.841 260.324 C 232.566 260.837,232.572 261.212,232.860 261.500 C 233.143 261.783,233.153 262.155,232.888 262.628 C 232.671 263.016,232.586 264.021,232.699 264.863 C 232.826 265.810,232.707 266.630,232.385 267.018 C 232.100 267.361,231.852 268.398,231.833 269.321 C 231.813 270.319,231.620 270.967,231.356 270.919 C 231.111 270.874,230.941 271.234,230.979 271.719 C 231.016 272.203,230.856 272.854,230.623 273.165 C 230.317 273.573,230.339 273.777,230.700 273.898 C 230.975 273.991,231.200 274.251,231.200 274.476 C 231.200 274.701,230.930 274.782,230.600 274.655 C 230.138 274.478,230.000 274.744,230.000 275.813 C 230.000 276.576,230.180 277.200,230.400 277.200 C 230.620 277.200,230.800 277.740,230.800 278.400 C 230.800 279.060,230.641 279.600,230.447 279.600 C 230.252 279.600,230.005 280.060,229.898 280.623 C 229.754 281.376,229.847 281.591,230.251 281.436 C 230.886 281.192,230.980 281.660,230.411 282.229 C 230.198 282.442,229.964 283.783,229.892 285.209 C 229.815 286.735,229.590 287.767,229.343 287.721 C 229.053 287.666,229.045 288.258,229.318 289.636 C 229.641 291.273,229.603 291.717,229.105 292.115 C 228.772 292.382,228.395 293.164,228.269 293.853 C 228.142 294.543,227.917 295.623,227.768 296.253 C 227.581 297.045,227.626 297.276,227.914 297.000 C 228.144 296.780,228.413 296.150,228.512 295.600 C 228.646 294.850,228.705 294.964,228.746 296.057 C 228.782 297.022,228.597 297.592,228.200 297.745 C 227.544 297.996,227.380 299.417,227.966 299.779 C 228.167 299.903,228.423 299.779,228.534 299.502 C 228.679 299.143,228.746 299.135,228.768 299.476 C 228.786 299.738,228.620 300.064,228.400 300.200 C 228.180 300.336,228.000 300.887,228.000 301.424 C 228.000 301.961,227.775 302.414,227.500 302.432 C 227.100 302.457,227.100 302.504,227.500 302.665 C 228.094 302.904,228.176 304.000,227.600 304.000 C 227.380 304.000,227.200 304.270,227.200 304.600 C 227.200 304.930,227.393 305.200,227.629 305.200 C 227.896 305.200,228.020 306.068,227.958 307.500 C 227.836 310.316,227.618 311.258,227.156 310.973 C 226.961 310.853,226.977 311.213,227.190 311.774 C 227.403 312.334,227.538 314.226,227.489 315.978 C 227.440 317.730,227.296 318.869,227.169 318.508 C 226.756 317.336,226.400 318.630,226.648 320.403 C 226.814 321.591,226.752 322.018,226.443 321.826 C 226.191 321.671,226.000 321.823,226.000 322.176 C 226.000 322.519,226.180 322.800,226.400 322.800 C 226.620 322.800,226.800 323.340,226.800 324.000 C 226.800 324.660,226.599 325.200,226.353 325.200 C 226.101 325.200,225.999 324.846,226.120 324.384 C 226.295 323.716,226.190 323.613,225.545 323.818 C 224.965 324.002,224.250 323.595,222.848 322.284 C 217.065 316.875,195.083 313.623,188.416 317.192 C 187.996 317.416,187.141 317.600,186.515 317.600 C 185.890 317.600,185.023 317.843,184.589 318.140 C 184.155 318.437,183.334 318.794,182.764 318.932 C 182.193 319.070,180.530 320.107,179.068 321.236 C 176.081 323.542,175.361 323.557,174.997 321.321 C 174.860 320.484,174.581 319.387,174.375 318.881 C 174.169 318.376,174.000 317.536,174.000 317.015 C 174.000 316.493,173.821 316.007,173.603 315.933 C 173.385 315.860,173.160 314.874,173.103 313.742 C 173.046 312.610,172.874 311.760,172.720 311.853 C 172.566 311.946,172.322 311.389,172.176 310.615 C 172.029 309.830,171.736 309.316,171.513 309.454 C 171.272 309.603,171.213 309.390,171.363 308.917 C 171.525 308.405,171.332 307.882,170.806 307.405 C 170.363 307.004,170.000 306.269,170.000 305.771 C 170.000 305.274,169.777 304.792,169.505 304.702 C 169.113 304.571,169.112 304.312,169.496 303.468 C 169.784 302.837,169.823 302.400,169.591 302.400 C 169.376 302.400,169.200 302.175,169.201 301.900 C 169.201 301.181,167.057 296.812,166.700 296.805 C 166.535 296.802,166.400 296.993,166.400 297.229 C 166.400 298.192,165.238 296.410,164.984 295.057 C 164.834 294.256,164.540 293.600,164.330 293.600 C 164.121 293.600,164.006 293.195,164.075 292.700 C 164.144 292.205,164.020 291.830,163.800 291.866 C 163.580 291.902,163.383 291.441,163.361 290.842 C 163.298 289.063,159.491 283.447,159.064 284.504 C 158.946 284.796,158.850 284.712,158.832 284.300 C 158.814 283.915,158.620 283.600,158.400 283.600 C 158.180 283.600,158.000 283.251,158.000 282.824 C 158.000 282.397,157.837 281.946,157.638 281.823 C 157.438 281.700,157.361 281.271,157.466 280.871 C 157.582 280.424,157.057 279.382,156.104 278.171 C 155.251 277.087,154.207 275.611,153.785 274.892 C 153.320 274.098,152.801 273.668,152.465 273.797 C 152.087 273.941,151.988 273.807,152.155 273.374 C 152.617 272.170,149.012 267.010,148.400 268.001 C 148.140 268.421,147.988 268.293,147.784 267.479 C 147.635 266.886,147.308 266.397,147.057 266.394 C 146.805 266.391,146.870 266.213,147.200 266.000 C 147.784 265.622,147.742 265.574,146.700 265.432 C 146.425 265.394,146.252 265.126,146.316 264.835 C 146.538 263.817,143.628 260.107,143.178 260.835 C 143.021 261.089,142.795 260.835,142.645 260.238 C 142.502 259.667,142.198 259.200,141.969 259.200 C 141.740 259.200,141.660 259.027,141.791 258.815 C 142.255 258.064,137.418 251.418,136.721 251.849 C 136.534 251.965,136.430 251.821,136.490 251.530 C 136.551 251.238,136.371 251.046,136.092 251.103 C 135.755 251.171,135.654 250.901,135.792 250.303 C 136.051 249.180,133.214 244.973,132.252 245.055 C 131.898 245.085,131.705 244.954,131.823 244.763 C 131.941 244.572,131.820 244.012,131.556 243.517 C 131.088 242.642,131.065 242.639,130.730 243.409 C 130.472 243.999,130.433 243.879,130.575 242.935 C 130.698 242.119,130.559 241.498,130.183 241.186 C 129.862 240.920,129.600 240.536,129.600 240.333 C 129.600 239.785,127.724 238.009,127.442 238.291 C 127.309 238.424,127.200 238.143,127.200 237.667 C 127.200 237.190,127.065 236.821,126.900 236.847 C 126.033 236.984,125.600 236.724,125.600 236.067 C 125.600 235.663,125.480 235.214,125.334 235.067 C 125.188 234.921,125.021 234.357,124.963 233.815 C 124.905 233.272,124.338 232.057,123.703 231.114 C 122.121 228.765,120.238 225.485,120.193 225.000 C 120.153 224.559,119.803 223.720,118.244 220.326 C 117.670 219.075,117.200 217.840,117.200 217.583 C 117.200 217.316,116.922 217.221,116.555 217.362 C 116.094 217.539,115.977 217.437,116.143 217.005 C 116.271 216.672,116.254 216.085,116.106 215.700 C 115.878 215.108,115.794 215.154,115.558 216.000 C 115.303 216.918,115.276 216.928,115.240 216.124 C 115.218 215.642,115.030 215.142,114.823 215.014 C 114.616 214.886,114.325 213.973,114.177 212.986 C 114.029 211.998,113.748 211.092,113.554 210.971 C 113.359 210.851,113.200 210.561,113.200 210.327 C 113.200 210.059,113.422 210.086,113.800 210.400 C 114.130 210.674,114.400 210.814,114.400 210.710 C 114.400 210.420,113.091 207.825,112.831 207.600 C 112.160 207.019,111.593 205.454,111.808 204.775 C 111.946 204.339,111.867 204.000,111.627 204.000 C 111.392 204.000,111.200 203.640,111.200 203.200 C 111.200 202.760,111.020 202.400,110.800 202.400 C 110.580 202.400,110.400 201.938,110.400 201.374 C 110.400 200.401,109.321 195.116,108.324 191.200 C 107.863 189.390,107.558 187.023,106.884 180.000 C 106.337 174.304,107.328 157.366,108.366 154.674 C 108.605 154.055,108.800 152.940,108.800 152.198 C 108.800 151.455,108.960 150.749,109.155 150.628 C 109.350 150.507,109.631 149.761,109.780 148.969 C 110.916 142.912,118.208 127.713,121.184 125.200 C 121.314 125.090,122.039 124.190,122.794 123.200 C 124.297 121.230,124.622 120.878,129.593 115.839 C 131.459 113.948,133.124 112.400,133.292 112.400 C 133.460 112.400,134.273 111.791,135.099 111.047 C 137.946 108.482,144.657 104.564,150.400 102.115 C 151.170 101.787,152.160 101.354,152.600 101.153 C 155.143 99.991,163.884 98.025,168.800 97.509 C 171.975 97.175,183.182 97.655,186.200 98.253 M103.600 104.000 C 103.600 104.880,103.780 105.600,104.000 105.600 C 104.220 105.600,104.400 104.880,104.400 104.000 C 104.400 103.120,104.220 102.400,104.000 102.400 C 103.780 102.400,103.600 103.120,103.600 104.000 M98.400 109.200 C 98.400 109.420,98.670 109.600,99.000 109.600 C 99.330 109.600,99.600 109.420,99.600 109.200 C 99.600 108.980,99.330 108.800,99.000 108.800 C 98.670 108.800,98.400 108.980,98.400 109.200 M325.300 111.865 C 324.517 111.977,324.000 112.281,324.000 112.630 C 324.000 113.082,323.648 113.153,322.400 112.954 C 320.887 112.712,320.090 113.267,321.300 113.721 C 321.575 113.824,320.855 114.042,319.700 114.206 C 318.545 114.369,317.600 114.639,317.600 114.805 C 317.600 114.971,317.195 115.247,316.700 115.419 C 315.856 115.711,315.277 115.805,313.457 115.943 C 312.996 115.979,312.796 116.212,312.930 116.561 C 313.056 116.891,312.836 117.202,312.392 117.318 C 311.977 117.426,311.572 117.315,311.490 117.071 C 311.409 116.827,310.776 117.206,310.085 117.913 C 309.393 118.621,308.641 119.200,308.413 119.200 C 308.186 119.200,308.000 119.380,308.000 119.600 C 308.000 119.820,307.743 120.000,307.429 120.000 C 307.114 120.000,306.585 120.272,306.252 120.605 C 305.919 120.938,305.141 121.277,304.523 121.359 C 302.451 121.633,300.800 122.615,300.800 123.571 C 300.800 123.807,300.620 124.022,300.400 124.050 C 300.180 124.078,299.775 124.131,299.500 124.168 C 299.225 124.206,299.050 124.467,299.110 124.748 C 299.185 125.095,298.956 125.176,298.400 125.000 C 297.949 124.857,297.606 124.888,297.637 125.070 C 297.814 126.087,297.539 126.477,296.785 126.280 C 296.259 126.143,295.598 126.411,294.926 127.033 C 294.353 127.565,294.027 128.000,294.203 128.000 C 294.379 128.000,294.107 128.360,293.600 128.800 C 293.093 129.240,292.537 129.600,292.366 129.600 C 292.194 129.600,291.946 129.941,291.814 130.357 C 291.682 130.773,291.219 131.206,290.786 131.320 C 290.317 131.442,290.100 131.363,290.248 131.123 C 290.687 130.412,289.064 131.458,288.058 132.534 C 287.540 133.088,287.236 133.734,287.382 133.970 C 287.528 134.207,287.410 134.400,287.120 134.400 C 286.830 134.400,286.363 134.767,286.083 135.216 C 285.803 135.664,285.392 135.919,285.169 135.781 C 284.593 135.425,283.600 136.359,283.600 137.256 C 283.600 137.673,282.994 138.602,282.254 139.321 C 281.514 140.040,280.774 141.050,280.611 141.567 C 280.379 142.297,280.233 142.383,279.956 141.953 C 279.524 141.283,278.816 142.127,278.806 143.324 C 278.802 143.765,278.621 143.937,278.342 143.764 C 278.019 143.565,277.962 143.795,278.149 144.540 C 278.355 145.361,278.269 145.600,277.765 145.600 C 277.341 145.600,277.198 145.817,277.353 146.221 C 277.489 146.577,277.422 146.737,277.195 146.597 C 276.978 146.463,276.800 146.749,276.800 147.232 C 276.800 147.716,276.536 148.312,276.212 148.556 C 274.695 149.703,277.267 153.950,279.500 153.986 C 279.995 153.994,280.400 154.180,280.400 154.400 C 280.400 154.909,282.914 154.926,283.420 154.421 C 283.629 154.212,285.734 153.987,288.098 153.921 C 292.120 153.808,293.341 153.518,291.700 153.066 C 291.315 152.960,291.765 152.970,292.700 153.088 C 294.330 153.293,295.055 152.776,293.900 152.231 C 293.625 152.101,293.902 152.091,294.515 152.209 C 295.745 152.445,298.398 151.384,298.403 150.654 C 298.405 150.124,300.590 148.800,301.461 148.800 C 301.789 148.800,302.327 148.530,302.657 148.200 C 303.328 147.529,304.184 147.379,303.800 148.000 C 303.664 148.220,303.788 148.394,304.076 148.387 C 304.791 148.369,306.400 146.984,306.400 146.387 C 306.400 146.013,306.537 146.016,307.000 146.400 C 307.415 146.744,307.600 146.759,307.600 146.449 C 307.600 146.202,307.870 146.000,308.200 146.000 C 308.823 146.000,309.025 145.392,308.500 145.099 C 308.335 145.007,308.450 144.996,308.756 145.075 C 309.062 145.153,309.567 144.854,309.879 144.409 C 310.190 143.964,310.716 143.600,311.046 143.600 C 311.377 143.600,311.536 143.420,311.400 143.200 C 311.264 142.980,311.421 142.800,311.748 142.800 C 312.075 142.800,312.624 142.519,312.968 142.174 C 313.312 141.830,313.774 141.660,313.993 141.796 C 314.431 142.066,316.367 140.814,316.387 140.247 C 316.407 139.698,318.052 138.400,318.728 138.400 C 319.061 138.400,319.217 138.283,319.074 138.141 C 318.754 137.821,320.391 136.347,320.791 136.594 C 320.949 136.692,321.429 136.446,321.858 136.047 C 322.286 135.648,322.898 135.218,323.218 135.092 C 323.629 134.930,323.569 134.854,323.011 134.832 C 322.297 134.803,322.316 134.736,323.211 134.123 C 323.755 133.751,324.290 133.322,324.400 133.169 C 324.510 133.017,324.960 132.825,325.400 132.742 C 325.840 132.659,326.560 131.918,327.000 131.096 C 327.440 130.275,328.003 129.602,328.250 129.601 C 328.498 129.600,328.988 129.015,329.341 128.300 C 329.693 127.585,329.986 127.225,329.991 127.500 C 330.012 128.632,330.800 127.885,331.216 126.340 C 331.671 124.650,332.281 123.756,333.000 123.726 C 333.220 123.717,333.578 123.325,333.795 122.855 C 334.012 122.385,334.321 122.000,334.482 122.000 C 334.643 122.000,334.678 121.748,334.560 121.440 C 334.442 121.133,334.538 120.762,334.773 120.617 C 335.008 120.472,335.200 120.173,335.200 119.953 C 335.200 119.733,335.065 119.637,334.900 119.739 C 334.735 119.842,334.659 118.808,334.731 117.442 C 334.971 112.871,331.718 110.947,325.300 111.865 M8.300 146.711 C 4.817 146.776,2.400 146.981,2.400 147.211 C 2.400 147.425,2.130 147.600,1.800 147.600 C 1.470 147.600,1.200 147.799,1.200 148.043 C 1.200 148.286,0.951 148.390,0.646 148.273 C 0.197 148.101,0.081 148.872,0.036 152.330 L -0.020 156.600 1.620 158.400 C 2.572 159.445,3.154 159.866,3.006 159.405 C 2.752 158.611,2.754 158.611,3.518 159.405 C 3.939 159.842,4.131 160.300,3.944 160.422 C 3.758 160.544,4.359 161.429,5.281 162.388 C 6.202 163.347,7.025 163.924,7.110 163.669 C 7.288 163.136,8.400 164.069,8.400 164.751 C 8.400 165.338,10.950 167.200,11.755 167.200 C 12.415 167.200,12.864 167.484,14.395 168.867 C 14.801 169.233,15.248 169.419,15.388 169.279 C 15.528 169.139,15.516 169.355,15.361 169.758 C 15.121 170.382,15.224 170.451,16.039 170.220 C 16.694 170.034,16.827 170.067,16.457 170.324 C 15.800 170.779,16.211 171.033,17.760 171.129 C 18.992 171.205,20.113 171.894,19.808 172.388 C 19.707 172.551,20.069 172.599,20.612 172.496 C 21.567 172.313,21.792 172.614,21.637 173.870 C 21.605 174.128,21.986 174.469,22.484 174.627 C 22.982 174.785,24.044 175.347,24.845 175.877 C 25.894 176.571,26.594 176.767,27.350 176.577 C 28.010 176.411,28.400 176.478,28.400 176.757 C 28.400 177.000,28.683 177.200,29.029 177.200 C 29.817 177.200,30.857 178.204,30.481 178.602 C 30.326 178.766,30.604 178.775,31.097 178.624 C 31.807 178.405,31.945 178.479,31.755 178.972 C 31.559 179.485,31.739 179.552,32.765 179.347 C 33.811 179.138,33.974 179.203,33.764 179.751 C 33.453 180.559,35.831 181.674,37.137 181.332 C 37.640 181.201,38.000 181.293,38.000 181.553 C 38.000 181.799,38.450 182.000,39.000 182.000 C 39.550 182.000,40.000 182.199,40.000 182.443 C 40.000 182.686,40.270 182.782,40.600 182.655 C 40.930 182.529,41.200 182.599,41.200 182.813 C 41.200 183.026,41.560 183.200,42.000 183.200 C 42.440 183.200,42.800 183.374,42.800 183.587 C 42.800 183.801,43.070 183.871,43.400 183.745 C 43.790 183.595,44.000 183.755,44.000 184.202 C 44.000 184.769,44.242 184.844,45.382 184.630 C 46.142 184.487,47.087 184.547,47.482 184.763 C 47.877 184.980,48.867 185.263,49.682 185.393 C 50.790 185.570,51.105 185.782,50.931 186.235 C 50.746 186.717,50.914 186.787,51.749 186.577 C 52.457 186.399,52.800 186.474,52.800 186.806 C 52.800 187.183,52.931 187.189,53.361 186.832 C 53.740 186.518,53.968 186.504,54.063 186.788 C 54.140 187.020,55.694 187.325,57.515 187.465 C 59.337 187.606,60.922 187.874,61.037 188.060 C 61.340 188.550,69.600 188.492,69.600 188.000 C 69.600 187.780,70.005 187.621,70.500 187.646 C 71.177 187.681,71.227 187.738,70.700 187.876 C 70.315 187.976,70.000 188.225,70.000 188.429 C 70.000 188.633,69.604 188.800,69.120 188.800 C 68.442 188.800,68.349 188.909,68.714 189.274 C 69.263 189.823,72.163 188.516,72.250 187.680 C 72.278 187.416,72.325 186.975,72.356 186.700 C 72.396 186.348,72.539 186.377,72.841 186.800 C 73.185 187.282,73.231 187.223,73.072 186.500 C 72.964 186.005,73.010 185.600,73.174 185.600 C 73.764 185.600,74.508 182.314,73.990 181.994 C 73.710 181.821,73.625 181.351,73.784 180.850 C 73.976 180.246,73.883 180.000,73.464 180.000 C 73.066 180.000,72.945 179.733,73.090 179.176 C 73.247 178.577,73.081 178.294,72.481 178.137 C 71.930 177.993,71.736 177.711,71.897 177.291 C 72.078 176.820,71.965 176.728,71.449 176.926 C 71.030 177.087,70.857 177.032,71.008 176.787 C 71.363 176.212,65.969 170.726,65.301 170.983 C 65.003 171.097,64.854 171.036,64.971 170.847 C 65.238 170.414,62.779 168.340,62.220 168.527 C 61.993 168.602,60.910 167.795,59.814 166.732 C 58.404 165.366,57.495 164.800,56.710 164.800 C 56.099 164.800,55.598 164.665,55.595 164.500 C 55.593 164.335,54.868 163.854,53.985 163.430 C 52.992 162.955,52.556 162.551,52.843 162.373 C 53.158 162.179,53.040 161.943,52.480 161.643 C 51.476 161.105,51.076 161.076,51.377 161.563 C 51.500 161.762,51.241 161.831,50.801 161.716 C 50.360 161.601,50.000 161.348,50.000 161.153 C 50.000 160.959,49.640 160.800,49.200 160.800 C 48.760 160.800,48.400 160.637,48.400 160.437 C 48.400 160.238,48.805 160.175,49.300 160.297 C 50.349 160.555,50.189 160.311,48.852 159.614 C 48.241 159.296,48.000 159.277,48.175 159.560 C 48.584 160.221,47.348 160.091,46.657 159.400 C 46.327 159.070,45.729 158.797,45.329 158.794 C 44.724 158.789,44.700 158.725,45.188 158.416 C 45.886 157.975,45.960 158.042,43.263 156.679 C 42.088 156.086,40.513 155.600,39.763 155.600 C 39.013 155.600,38.400 155.447,38.400 155.261 C 38.400 154.912,34.825 153.632,33.654 153.560 C 33.287 153.538,33.424 153.402,33.967 153.250 L 34.934 152.980 33.767 152.190 C 32.910 151.610,31.962 151.407,30.200 151.427 C 28.880 151.441,28.115 151.383,28.500 151.297 C 28.885 151.212,29.200 150.971,29.200 150.763 C 29.200 150.555,28.750 150.498,28.200 150.636 C 27.634 150.778,27.200 150.714,27.200 150.488 C 27.200 150.268,26.975 150.097,26.700 150.107 C 25.147 150.165,24.400 149.936,24.400 149.400 C 24.400 149.070,24.220 148.800,24.000 148.800 C 23.780 148.800,23.600 148.980,23.600 149.200 C 23.600 149.420,23.426 149.600,23.213 149.600 C 22.999 149.600,22.915 149.365,23.025 149.079 C 23.172 148.697,22.822 148.587,21.713 148.667 C 20.535 148.752,20.417 148.709,21.179 148.475 C 22.096 148.193,22.056 148.143,20.532 147.687 C 18.558 147.095,17.600 147.067,17.600 147.600 C 17.600 147.820,18.039 148.000,18.576 148.000 C 19.113 148.000,19.641 148.142,19.748 148.316 C 19.856 148.490,19.327 148.561,18.572 148.473 C 17.817 148.385,17.200 148.152,17.200 147.956 C 17.200 147.760,16.725 147.600,16.144 147.600 C 15.563 147.600,14.888 147.375,14.644 147.100 C 14.318 146.733,12.634 146.629,8.300 146.711 M300.000 149.800 C 299.459 150.451,299.589 150.533,300.567 150.157 C 300.915 150.024,301.200 149.754,301.200 149.557 C 301.200 149.004,300.552 149.135,300.000 149.800 M89.625 164.100 C 89.464 165.487,89.402 165.591,89.284 164.666 C 89.154 163.644,89.382 162.400,89.698 162.400 C 89.766 162.400,89.733 163.165,89.625 164.100 M266.000 180.600 C 266.000 181.150,266.180 181.600,266.400 181.600 C 266.620 181.600,266.800 181.150,266.800 180.600 C 266.800 180.050,266.620 179.600,266.400 179.600 C 266.180 179.600,266.000 180.050,266.000 180.600 M266.000 183.376 C 266.000 184.159,266.180 184.800,266.400 184.800 C 266.620 184.800,266.800 184.271,266.800 183.624 C 266.800 182.977,266.620 182.336,266.400 182.200 C 266.162 182.053,266.000 182.529,266.000 183.376 M45.600 185.200 C 45.600 185.420,45.870 185.600,46.200 185.600 C 46.530 185.600,46.800 185.420,46.800 185.200 C 46.800 184.980,46.530 184.800,46.200 184.800 C 45.870 184.800,45.600 184.980,45.600 185.200 M47.905 185.883 C 48.402 185.979,49.122 185.975,49.505 185.875 C 49.887 185.775,49.480 185.696,48.600 185.701 C 47.720 185.705,47.407 185.787,47.905 185.883 M55.000 187.865 C 55.440 187.962,56.160 188.201,56.600 188.396 C 58.379 189.184,65.843 189.777,66.225 189.160 C 66.348 188.960,65.210 188.800,63.657 188.800 C 62.122 188.800,60.807 188.647,60.733 188.461 C 60.660 188.275,59.160 188.025,57.400 187.906 C 55.640 187.787,54.560 187.769,55.000 187.865 M247.200 194.480 C 247.200 195.126,247.082 195.242,246.755 194.915 C 246.510 194.670,246.431 194.274,246.578 194.035 C 246.992 193.365,247.200 193.514,247.200 194.480 M88.400 198.000 C 88.400 198.440,88.580 198.800,88.800 198.800 C 89.020 198.800,89.200 198.440,89.200 198.000 C 89.200 197.560,89.020 197.200,88.800 197.200 C 88.580 197.200,88.400 197.560,88.400 198.000 M226.708 314.383 C 226.431 315.367,226.597 315.937,227.032 315.501 C 227.160 315.373,227.201 314.848,227.124 314.334 L 226.984 313.400 226.708 314.383 M226.737 339.100 C 226.701 343.421,226.566 345.752,226.418 344.600 C 226.184 342.774,226.133 342.696,225.835 343.707 C 225.656 344.316,225.637 345.306,225.793 345.907 C 226.804 349.807,226.392 352.006,224.651 351.994 C 223.955 351.989,223.909 351.917,224.400 351.600 C 224.885 351.286,224.828 351.211,224.100 351.206 C 223.605 351.203,223.200 351.379,223.200 351.597 C 223.200 352.065,220.038 350.877,219.271 350.121 C 218.981 349.834,218.531 349.606,218.271 349.613 C 218.012 349.620,218.160 349.903,218.600 350.243 C 219.343 350.817,219.256 350.841,217.400 350.584 C 215.534 350.325,213.913 349.600,215.200 349.600 C 215.572 349.600,215.626 349.466,215.362 349.202 C 214.291 348.131,202.948 348.365,203.363 349.449 C 203.518 349.852,203.202 350.000,202.187 350.000 C 201.296 350.000,200.800 349.809,200.800 349.465 C 200.800 349.106,200.197 348.907,198.969 348.860 C 196.924 348.783,196.012 349.113,196.846 349.628 C 197.138 349.809,197.239 350.094,197.070 350.263 C 196.902 350.432,196.414 350.352,195.987 350.085 C 194.762 349.320,191.156 349.441,192.176 350.213 C 192.913 350.770,192.889 350.800,191.710 350.800 C 191.026 350.800,190.398 350.594,190.314 350.342 C 190.167 349.901,188.758 350.182,186.200 351.162 C 183.014 352.384,180.351 353.045,180.120 352.671 C 179.968 352.425,179.723 352.571,179.524 353.027 C 179.334 353.463,179.269 350.418,179.375 346.038 C 179.542 339.183,179.223 336.462,178.691 340.200 C 178.597 340.860,178.493 340.134,178.460 338.586 C 178.406 336.053,178.477 335.771,179.171 335.771 C 179.594 335.771,179.866 335.894,179.773 336.043 C 179.681 336.192,180.062 336.429,180.619 336.569 C 181.177 336.709,181.536 336.981,181.417 337.173 C 181.298 337.365,181.841 337.899,182.623 338.361 C 184.203 339.293,184.999 339.445,184.558 338.732 C 184.361 338.413,184.491 338.349,184.967 338.532 C 185.351 338.679,186.236 338.814,186.933 338.832 C 187.630 338.849,187.964 338.958,187.676 339.073 C 187.027 339.333,188.210 340.800,189.067 340.800 C 189.366 340.800,189.992 341.025,190.458 341.300 C 191.135 341.700,191.341 341.700,191.486 341.300 C 191.585 341.025,191.932 340.800,192.257 340.800 C 192.582 340.800,192.744 340.968,192.617 341.172 C 192.303 341.681,192.698 341.862,194.800 342.177 C 196.103 342.373,196.434 342.332,196.000 342.030 C 195.533 341.705,195.711 341.612,196.800 341.612 C 197.717 341.612,198.016 341.729,197.666 341.950 C 197.018 342.362,197.917 342.800,199.409 342.800 C 200.472 342.800,201.070 342.175,200.302 341.866 C 200.026 341.754,200.520 341.662,201.400 341.660 C 202.532 341.657,202.774 341.745,202.229 341.958 C 201.514 342.238,201.509 342.280,202.162 342.530 C 203.884 343.191,207.533 342.537,205.902 341.860 C 205.626 341.745,206.705 341.755,208.300 341.883 C 211.464 342.136,212.581 341.382,209.500 341.073 C 208.565 340.980,209.371 340.976,211.292 341.065 C 214.184 341.200,215.090 341.088,216.570 340.414 C 217.552 339.966,218.598 339.600,218.893 339.600 C 219.189 339.600,220.053 339.067,220.815 338.416 C 221.577 337.765,222.414 337.225,222.676 337.216 C 223.435 337.190,223.755 336.344,223.151 335.961 C 222.695 335.673,222.704 335.610,223.200 335.602 C 223.530 335.596,224.160 335.171,224.600 334.657 C 225.321 333.815,225.451 333.785,225.918 334.361 C 226.358 334.904,226.417 334.743,226.308 333.300 C 226.237 332.365,226.319 331.600,226.489 331.600 C 226.660 331.600,226.772 334.975,226.737 339.100 M225.867 337.467 C 225.450 337.883,225.554 340.324,226.000 340.600 C 226.244 340.751,226.400 340.137,226.400 339.024 C 226.400 337.169,226.340 336.993,225.867 337.467 M215.600 340.000 C 214.070 340.490,212.842 340.490,213.600 340.000 C 213.930 339.787,214.740 339.627,215.400 339.646 C 216.576 339.679,216.580 339.686,215.600 340.000 M234.400 341.224 C 234.400 341.677,234.580 341.936,234.800 341.800 C 235.020 341.664,235.200 341.293,235.200 340.976 C 235.200 340.659,235.020 340.400,234.800 340.400 C 234.580 340.400,234.400 340.771,234.400 341.224 M227.483 350.895 C 227.387 351.393,227.305 351.080,227.301 350.200 C 227.296 349.320,227.375 348.913,227.475 349.295 C 227.575 349.678,227.579 350.398,227.483 350.895 M208.585 349.576 C 208.724 349.801,208.209 349.859,207.309 349.720 C 205.300 349.410,205.139 349.200,206.910 349.200 C 207.703 349.200,208.457 349.369,208.585 349.576 M212.200 349.600 C 212.336 349.820,212.177 350.000,211.847 350.000 C 211.517 350.000,211.136 349.820,211.000 349.600 C 210.864 349.380,211.023 349.200,211.353 349.200 C 211.683 349.200,212.064 349.380,212.200 349.600 M184.000 353.355 C 184.000 353.440,183.460 353.588,182.800 353.685 C 182.140 353.782,181.600 353.713,181.600 353.531 C 181.600 353.349,182.140 353.200,182.800 353.200 C 183.460 353.200,184.000 353.270,184.000 353.355 M237.476 363.100 C 237.375 363.485,237.293 363.170,237.293 362.400 C 237.293 361.630,237.375 361.315,237.476 361.700 C 237.576 362.085,237.576 362.715,237.476 363.100 M170.000 367.800 C 170.000 368.350,170.180 368.800,170.400 368.800 C 170.620 368.800,170.800 368.350,170.800 367.800 C 170.800 367.250,170.620 366.800,170.400 366.800 C 170.180 366.800,170.000 367.250,170.000 367.800 M217.784 377.227 C 217.639 377.461,217.620 377.753,217.743 377.876 C 218.072 378.205,219.200 377.691,219.200 377.213 C 219.200 376.670,218.121 376.680,217.784 377.227 M191.100 377.476 C 190.715 377.576,190.085 377.576,189.700 377.476 C 189.315 377.375,189.630 377.293,190.400 377.293 C 191.170 377.293,191.485 377.375,191.100 377.476 M206.800 378.800 C 206.800 379.020,207.160 379.200,207.600 379.200 C 208.040 379.200,208.400 379.020,208.400 378.800 C 208.400 378.580,208.040 378.400,207.600 378.400 C 207.160 378.400,206.800 378.580,206.800 378.800 M201.800 385.924 C 196.997 386.222,199.371 386.800,205.420 386.806 C 208.929 386.809,212.008 386.944,212.263 387.106 C 212.517 387.268,209.592 387.400,205.763 387.400 C 200.460 387.400,198.801 387.281,198.800 386.900 C 198.800 386.625,198.575 386.398,198.300 386.395 C 198.025 386.392,197.395 386.281,196.900 386.148 C 196.385 386.010,196.000 386.086,196.000 386.326 C 196.000 386.557,196.405 386.886,196.900 387.057 C 197.661 387.320,197.521 387.413,196.000 387.655 C 195.010 387.813,193.660 388.046,193.000 388.173 C 192.182 388.330,192.342 388.201,193.500 387.769 C 195.242 387.118,195.967 386.058,194.300 386.599 C 193.805 386.759,192.724 386.979,191.897 387.088 C 190.477 387.274,189.353 387.997,190.476 388.002 C 191.336 388.007,189.075 389.046,187.582 389.333 C 186.612 389.520,186.379 389.482,186.800 389.206 C 187.130 388.989,187.805 388.809,188.300 388.806 C 188.795 388.803,189.200 388.620,189.200 388.400 C 189.200 387.790,187.478 387.922,185.749 388.665 C 184.239 389.314,184.225 389.338,185.200 389.626 L 186.200 389.920 185.200 390.020 C 184.650 390.076,183.694 390.080,183.074 390.031 C 182.317 389.971,181.613 390.278,180.920 390.971 C 180.001 391.890,179.971 392.003,180.645 392.032 C 181.214 392.055,181.252 392.119,180.800 392.289 C 180.470 392.414,179.629 393.097,178.930 393.807 C 178.232 394.517,177.179 395.219,176.591 395.366 C 175.670 395.598,175.557 395.785,175.773 396.717 C 175.954 397.496,175.915 397.635,175.634 397.212 C 175.162 396.500,175.098 396.567,174.301 398.618 C 173.115 401.668,175.793 407.955,178.186 407.740 C 178.553 407.707,178.766 407.767,178.660 407.874 C 178.284 408.249,179.788 409.600,180.589 409.606 C 181.211 409.611,181.270 409.694,180.845 409.964 C 180.420 410.233,180.655 410.555,181.845 411.333 C 183.670 412.528,185.600 413.099,185.600 412.443 C 185.600 412.200,185.763 412.000,185.963 412.000 C 186.162 412.000,186.231 412.360,186.116 412.800 C 185.891 413.660,186.613 413.931,186.914 413.100 C 187.055 412.713,187.274 412.705,187.889 413.067 C 188.325 413.323,189.519 413.659,190.541 413.812 C 191.564 413.965,192.400 414.250,192.400 414.445 C 192.400 414.640,192.985 414.827,193.700 414.860 C 194.920 414.916,194.932 414.930,193.893 415.087 C 192.376 415.316,192.927 416.000,194.629 416.000 C 195.389 416.000,196.323 416.171,196.705 416.380 C 197.087 416.589,198.480 416.933,199.800 417.144 C 201.120 417.356,202.470 417.590,202.800 417.664 C 203.153 417.744,203.361 417.553,203.305 417.200 C 203.223 416.685,204.039 416.618,209.061 416.724 C 212.813 416.804,215.064 416.696,215.336 416.424 C 215.569 416.191,216.579 415.996,217.580 415.992 C 220.356 415.980,224.875 415.242,225.786 414.652 C 226.234 414.362,227.363 414.005,228.295 413.859 C 229.227 413.712,230.589 413.255,231.322 412.844 C 233.063 411.866,235.418 411.324,235.002 411.997 C 234.772 412.369,234.898 412.375,235.552 412.026 C 236.018 411.776,236.400 411.398,236.400 411.186 C 236.400 410.974,236.588 410.800,236.818 410.800 C 237.557 410.800,239.165 408.925,238.767 408.527 C 238.538 408.298,238.740 407.786,239.290 407.196 C 239.812 406.635,240.148 405.813,240.098 405.218 C 240.036 404.472,240.091 404.383,240.306 404.885 C 240.474 405.276,240.613 404.458,240.629 402.976 C 240.647 401.364,240.525 400.575,240.305 400.891 C 240.087 401.204,240.048 400.909,240.203 400.121 C 240.524 398.488,237.783 395.221,236.049 395.168 C 235.472 395.151,235.225 395.046,235.500 394.935 C 236.331 394.600,236.069 394.056,234.747 393.373 C 233.821 392.894,233.418 392.847,233.205 393.192 C 232.995 393.532,232.745 393.488,232.287 393.030 C 231.940 392.683,231.485 392.400,231.274 392.400 C 231.063 392.400,230.465 391.862,229.945 391.204 C 229.068 390.093,227.600 389.555,227.600 390.344 C 227.600 390.534,226.887 390.499,226.016 390.266 C 224.781 389.936,224.527 389.728,224.865 389.322 C 225.202 388.915,225.066 388.800,224.249 388.800 C 223.672 388.800,223.200 388.976,223.200 389.190 C 223.200 389.603,220.892 389.300,220.200 388.796 C 219.980 388.636,219.080 388.385,218.200 388.238 C 214.891 387.689,214.400 387.521,214.400 386.945 C 214.400 386.619,214.212 386.469,213.982 386.611 C 213.753 386.753,213.348 386.693,213.082 386.477 C 212.579 386.068,205.261 385.709,201.800 385.924 M226.000 389.600 C 226.000 389.820,226.360 390.000,226.800 390.000 C 227.240 390.000,227.600 389.820,227.600 389.600 C 227.600 389.380,227.240 389.200,226.800 389.200 C 226.360 389.200,226.000 389.380,226.000 389.600 M182.400 410.371 C 182.400 410.575,182.715 410.824,183.100 410.924 C 183.691 411.079,183.698 411.114,183.149 411.154 C 182.791 411.179,182.274 410.930,182.000 410.600 C 181.656 410.185,181.641 410.000,181.951 410.000 C 182.198 410.000,182.400 410.167,182.400 410.371 M190.800 414.800 C 190.800 415.020,191.171 415.200,191.624 415.200 C 192.077 415.200,192.336 415.020,192.200 414.800 C 192.064 414.580,191.693 414.400,191.376 414.400 C 191.059 414.400,190.800 414.580,190.800 414.800 M202.800 416.400 C 202.800 416.620,202.541 416.800,202.224 416.800 C 201.907 416.800,201.536 416.620,201.400 416.400 C 201.264 416.180,201.523 416.000,201.976 416.000 C 202.429 416.000,202.800 416.180,202.800 416.400 " stroke="none" fill="#040404" fill-rule="evenodd"></path><path id="path1" d="M167.000 98.441 C 160.922 99.413,155.136 100.828,152.600 101.961 C 152.160 102.158,151.080 102.625,150.200 103.000 C 144.039 105.624,138.023 109.254,133.627 113.000 C 123.588 121.554,115.277 133.391,112.000 143.800 C 111.516 145.340,110.955 146.960,110.756 147.400 C 108.893 151.501,106.960 167.801,107.316 176.400 C 107.700 185.665,110.465 203.145,111.607 203.533 C 111.823 203.607,112.000 203.849,112.000 204.073 C 112.000 204.296,112.285 205.136,112.633 205.940 C 112.982 206.743,113.528 208.004,113.847 208.742 C 114.166 209.480,114.319 210.426,114.186 210.845 C 113.923 211.672,115.156 214.874,115.626 214.584 C 115.785 214.486,116.028 214.857,116.166 215.409 C 116.472 216.624,117.618 218.036,118.071 217.756 C 118.252 217.644,118.400 217.833,118.400 218.176 C 118.400 218.519,118.580 218.800,118.800 218.800 C 119.020 218.800,119.200 219.070,119.200 219.400 C 119.200 219.730,119.359 220.000,119.553 220.000 C 119.748 220.000,120.001 220.360,120.116 220.801 C 120.231 221.241,120.162 221.500,119.963 221.377 C 119.265 220.946,119.611 221.799,120.900 223.691 C 121.615 224.740,122.378 225.539,122.596 225.467 C 123.254 225.249,124.096 226.373,123.818 227.098 C 123.675 227.471,123.679 227.655,123.826 227.507 C 124.247 227.087,125.303 228.354,125.061 228.986 C 124.714 229.890,128.044 234.375,128.864 234.109 C 129.018 234.059,129.364 234.689,129.633 235.509 C 130.301 237.547,131.221 238.983,133.306 241.242 C 133.914 241.901,134.587 242.332,134.801 242.199 C 135.021 242.063,135.087 242.228,134.953 242.579 C 134.821 242.922,134.924 243.200,135.181 243.200 C 135.437 243.200,135.539 243.375,135.407 243.589 C 135.172 243.969,136.091 245.678,137.097 246.731 C 137.377 247.023,137.798 247.622,138.033 248.062 C 138.274 248.511,138.709 248.767,139.026 248.645 C 139.336 248.526,139.564 248.557,139.532 248.714 C 139.413 249.294,140.095 250.388,140.442 250.174 C 140.639 250.052,140.800 250.323,140.800 250.776 C 140.800 251.229,140.935 251.579,141.100 251.553 C 141.959 251.417,142.399 251.672,142.394 252.300 C 142.389 252.887,142.328 252.905,142.016 252.412 C 141.811 252.088,141.526 251.941,141.381 252.085 C 141.237 252.229,141.632 253.034,142.260 253.874 C 143.883 256.046,144.263 256.400,144.971 256.400 C 145.317 256.400,145.600 256.655,145.600 256.967 C 145.600 257.278,145.818 257.606,146.084 257.695 C 146.350 257.783,146.589 258.342,146.615 258.936 C 146.656 259.875,147.196 260.835,148.982 263.139 C 149.212 263.436,149.973 264.306,150.674 265.074 C 151.375 265.841,151.858 266.704,151.748 266.990 C 151.462 267.736,154.990 273.080,155.975 273.392 C 156.429 273.536,156.800 273.897,156.800 274.194 C 156.800 274.490,157.003 274.801,157.250 274.883 C 157.498 274.966,157.697 275.566,157.694 276.217 C 157.691 276.868,157.824 277.580,157.991 277.800 C 158.158 278.020,158.886 279.280,159.611 280.600 C 161.531 284.101,161.753 284.416,162.193 284.269 C 163.016 283.995,163.697 285.215,163.447 286.518 C 163.259 287.500,163.303 287.660,163.635 287.200 C 163.982 286.720,164.027 286.790,163.860 287.548 C 163.726 288.151,164.004 289.056,164.625 290.040 C 165.161 290.889,165.600 291.745,165.600 291.941 C 165.600 293.184,167.341 296.143,167.633 295.396 C 167.897 294.719,167.948 294.705,167.972 295.300 C 167.987 295.685,168.160 296.000,168.355 296.000 C 168.550 296.000,168.830 296.806,168.978 297.791 C 169.125 298.776,169.416 299.687,169.625 299.815 C 169.833 299.944,169.891 300.495,169.754 301.041 C 169.590 301.693,169.735 302.287,170.177 302.775 C 170.547 303.183,170.670 303.581,170.451 303.659 C 169.921 303.847,170.810 307.290,171.501 307.725 C 171.785 307.903,171.912 308.218,171.785 308.425 C 171.657 308.631,171.743 308.800,171.976 308.800 C 172.209 308.800,172.400 308.590,172.400 308.333 C 172.400 308.077,172.487 307.954,172.593 308.060 C 172.699 308.166,172.622 308.826,172.421 309.526 C 172.123 310.566,172.169 310.800,172.675 310.800 C 173.117 310.800,173.239 311.082,173.104 311.788 C 173.001 312.331,173.049 312.693,173.212 312.592 C 173.637 312.330,173.988 313.895,173.995 316.076 C 173.998 317.108,174.163 318.054,174.363 318.177 C 174.562 318.300,174.851 319.313,175.004 320.429 C 175.372 323.106,176.011 323.260,178.235 321.210 C 184.846 315.117,204.555 313.178,215.400 317.554 C 218.691 318.881,221.681 320.555,223.261 321.953 C 225.777 324.179,225.995 324.096,226.027 320.900 C 226.080 315.556,226.285 313.518,226.801 313.200 C 227.084 313.024,227.208 312.598,227.076 312.253 C 226.943 311.908,227.007 311.519,227.217 311.389 C 227.428 311.259,227.582 310.758,227.560 310.276 C 227.523 309.456,227.498 309.464,227.180 310.400 C 226.892 311.246,226.850 311.154,226.905 309.800 C 226.941 308.920,227.098 308.108,227.254 307.996 C 227.869 307.552,228.146 305.458,227.560 305.683 C 226.878 305.945,227.004 296.729,227.700 295.419 C 227.928 294.989,228.084 293.594,228.045 292.319 C 228.004 290.949,228.144 290.000,228.388 290.000 C 228.615 290.000,228.800 289.640,228.800 289.200 C 228.800 288.760,228.607 288.400,228.371 288.400 C 228.136 288.400,228.232 288.111,228.585 287.758 C 228.958 287.384,229.127 286.800,228.988 286.361 C 228.670 285.361,229.173 284.515,229.644 285.257 C 229.885 285.638,229.990 285.480,229.994 284.724 C 229.997 284.132,229.820 283.536,229.600 283.400 C 229.380 283.264,229.200 282.004,229.200 280.600 C 229.200 279.196,229.380 277.936,229.600 277.800 C 229.820 277.664,230.000 276.742,230.000 275.750 C 230.000 274.759,230.191 273.590,230.425 273.153 C 230.659 272.715,230.861 271.645,230.873 270.773 C 230.898 268.955,231.572 268.181,231.654 269.876 C 231.702 270.853,231.732 270.879,231.885 270.078 C 231.982 269.571,231.861 268.915,231.617 268.620 C 231.288 268.224,231.306 267.944,231.686 267.542 C 231.969 267.244,232.250 266.640,232.311 266.200 C 232.420 265.411,232.414 265.410,231.811 266.176 C 231.223 266.924,231.200 266.912,231.200 265.853 C 231.200 265.221,231.370 264.858,231.600 265.000 C 231.820 265.136,232.000 265.057,232.000 264.824 C 232.000 264.057,232.089 263.809,232.647 263.011 C 233.388 261.953,233.333 261.190,232.587 262.176 C 231.815 263.197,231.721 261.666,232.470 260.274 C 232.729 259.793,232.901 258.720,232.853 257.888 C 232.800 256.959,233.004 256.139,233.383 255.760 C 234.067 255.076,234.229 254.211,233.600 254.600 C 233.380 254.736,233.200 254.487,233.200 254.047 C 233.200 253.607,233.380 253.136,233.600 253.000 C 233.820 252.864,234.000 252.393,234.000 251.953 C 234.000 251.513,234.180 251.264,234.400 251.400 C 234.620 251.536,234.800 251.471,234.800 251.256 C 234.800 251.041,234.924 250.536,235.075 250.133 C 235.317 249.488,235.269 249.466,234.675 249.949 C 234.092 250.423,234.000 250.407,234.000 249.836 C 234.000 249.473,234.225 249.088,234.500 248.982 C 234.835 248.852,235.033 247.645,235.101 245.317 C 235.158 243.346,235.390 241.730,235.639 241.576 C 235.879 241.427,236.095 240.636,236.118 239.819 C 236.156 238.497,236.218 238.410,236.680 239.042 C 237.138 239.669,237.200 239.564,237.200 238.156 C 237.200 237.278,237.395 236.365,237.633 236.127 C 237.943 235.817,237.915 235.449,237.533 234.825 C 237.071 234.071,237.093 233.903,237.700 233.558 C 238.085 233.339,238.400 232.809,238.400 232.380 C 238.400 231.410,237.724 231.352,237.476 232.300 C 237.338 232.827,237.281 232.777,237.246 232.100 C 237.221 231.605,237.380 231.200,237.600 231.200 C 237.820 231.200,238.000 230.502,238.000 229.649 C 238.000 228.505,238.236 227.923,238.900 227.430 C 239.395 227.063,239.575 226.872,239.300 227.005 C 238.616 227.337,238.671 226.872,239.404 226.139 C 239.736 225.807,239.905 225.370,239.780 225.168 C 239.655 224.965,239.738 224.800,239.965 224.800 C 240.202 224.800,240.320 224.120,240.242 223.200 C 240.139 221.991,240.251 221.600,240.700 221.600 C 241.122 221.600,241.222 221.340,241.046 220.700 C 240.440 218.489,240.311 216.800,240.749 216.800 C 240.997 216.800,241.218 216.125,241.240 215.300 C 241.275 213.961,241.314 213.908,241.600 214.800 C 241.947 215.885,242.134 215.552,242.011 214.068 C 241.969 213.556,242.264 212.893,242.667 212.595 C 243.254 212.161,243.301 211.953,242.900 211.547 C 242.246 210.884,242.248 209.567,242.903 209.818 C 243.274 209.960,243.369 209.536,243.263 208.206 C 243.173 207.071,243.283 206.400,243.560 206.400 C 243.802 206.400,244.000 205.829,244.000 205.131 C 244.000 204.434,244.295 203.537,244.655 203.139 C 245.182 202.557,245.214 202.299,244.817 201.821 C 244.546 201.494,244.417 200.996,244.531 200.713 C 244.657 200.400,244.749 200.481,244.768 200.924 C 244.787 201.338,244.986 201.532,245.235 201.378 C 245.474 201.231,245.583 200.777,245.476 200.370 C 245.370 199.962,245.534 199.421,245.841 199.166 C 246.149 198.911,246.400 198.432,246.400 198.102 C 246.400 197.614,246.288 197.595,245.800 198.000 C 245.085 198.594,245.058 198.418,245.637 196.926 C 245.877 196.307,246.146 194.810,246.234 193.600 C 246.321 192.390,246.578 190.498,246.805 189.395 C 247.032 188.293,247.242 186.718,247.273 185.895 C 247.304 185.073,247.470 184.400,247.642 184.400 C 248.269 184.400,247.451 172.390,246.429 166.600 C 246.235 165.500,245.860 163.250,245.597 161.600 C 245.333 159.950,244.935 158.060,244.711 157.400 C 244.487 156.740,244.168 155.480,244.001 154.600 C 242.669 147.561,236.620 135.307,229.885 126.000 C 220.447 112.960,203.404 102.594,185.200 98.821 C 182.270 98.214,170.019 97.958,167.000 98.441 " stroke="none" fill="#fbfb04" fill-rule="evenodd"></path><path id="path2" d="M173.507 97.890 C 174.226 97.979,175.306 97.977,175.907 97.886 C 176.508 97.795,175.920 97.722,174.600 97.724 C 173.280 97.726,172.788 97.801,173.507 97.890 M162.600 98.790 C 162.117 98.992,162.751 99.038,164.200 98.907 C 165.520 98.787,166.675 98.624,166.767 98.545 C 167.107 98.249,163.370 98.469,162.600 98.790 M184.800 98.800 C 185.350 98.976,186.250 99.117,186.800 99.113 C 187.698 99.106,187.678 99.074,186.600 98.800 C 184.908 98.369,183.456 98.369,184.800 98.800 M189.000 99.600 C 189.440 99.789,190.160 99.938,190.600 99.932 C 191.243 99.923,191.204 99.857,190.400 99.600 C 189.032 99.162,187.981 99.162,189.000 99.600 M192.200 100.400 C 192.640 100.589,193.270 100.744,193.600 100.744 C 193.978 100.744,193.904 100.617,193.400 100.400 C 192.960 100.211,192.330 100.056,192.000 100.056 C 191.622 100.056,191.696 100.183,192.200 100.400 M153.600 101.218 C 153.162 101.515,153.324 101.552,154.200 101.356 C 155.671 101.027,155.990 100.798,154.967 100.806 C 154.545 100.809,153.930 100.995,153.600 101.218 M149.376 102.980 C 148.627 103.540,148.632 103.552,149.506 103.332 C 150.005 103.206,150.510 102.945,150.630 102.752 C 150.968 102.204,150.236 102.338,149.376 102.980 M201.633 103.753 C 202.041 104.126,206.800 106.391,206.800 106.212 C 206.800 105.987,202.179 103.600,201.745 103.600 C 201.592 103.600,201.542 103.669,201.633 103.753 M141.000 107.435 L 139.800 108.466 141.100 107.606 C 141.815 107.133,142.400 106.668,142.400 106.573 C 142.400 106.273,142.231 106.378,141.000 107.435 M210.800 108.546 C 210.800 108.656,211.340 109.130,212.000 109.600 C 212.660 110.070,213.200 110.364,213.200 110.254 C 213.200 110.144,212.660 109.670,212.000 109.200 C 211.340 108.730,210.800 108.436,210.800 108.546 M136.900 110.040 C 135.196 111.247,134.587 111.973,135.900 111.234 C 136.753 110.753,139.079 108.827,138.800 108.832 C 138.690 108.834,137.835 109.378,136.900 110.040 M214.800 111.346 C 214.800 111.456,215.340 111.930,216.000 112.400 C 216.660 112.870,217.200 113.164,217.200 113.054 C 217.200 112.944,216.660 112.470,216.000 112.000 C 215.340 111.530,214.800 111.236,214.800 111.346 M128.786 117.100 L 126.600 119.400 128.991 117.200 C 130.306 115.990,131.461 114.955,131.557 114.900 C 131.654 114.845,131.562 114.800,131.353 114.800 C 131.144 114.800,129.989 115.835,128.786 117.100 M224.200 119.600 C 225.950 121.360,227.471 122.800,227.581 122.800 C 227.691 122.800,226.350 121.360,224.600 119.600 C 222.850 117.840,221.329 116.400,221.219 116.400 C 221.109 116.400,222.450 117.840,224.200 119.600 M244.022 155.126 C 244.010 155.416,244.198 156.023,244.440 156.475 C 244.682 156.927,245.021 158.130,245.193 159.149 C 245.474 160.812,245.508 160.858,245.531 159.600 C 245.553 158.316,244.073 153.926,244.022 155.126 M108.093 159.200 C 108.093 159.970,108.175 160.285,108.276 159.900 C 108.376 159.515,108.376 158.885,108.276 158.500 C 108.175 158.115,108.093 158.430,108.093 159.200 M107.693 162.000 C 107.693 162.770,107.775 163.085,107.876 162.700 C 107.976 162.315,107.976 161.685,107.876 161.300 C 107.775 160.915,107.693 161.230,107.693 162.000 M246.093 164.400 C 246.093 165.170,246.175 165.485,246.276 165.100 C 246.376 164.715,246.376 164.085,246.276 163.700 C 246.175 163.315,246.093 163.630,246.093 164.400 M107.324 166.200 C 107.326 167.520,107.401 168.012,107.490 167.293 C 107.579 166.574,107.577 165.494,107.486 164.893 C 107.395 164.292,107.322 164.880,107.324 166.200 M247.293 173.200 C 247.293 173.970,247.375 174.285,247.476 173.900 C 247.576 173.515,247.576 172.885,247.476 172.500 C 247.375 172.115,247.293 172.430,247.293 173.200 M107.301 180.600 C 107.305 181.480,107.387 181.793,107.483 181.295 C 107.579 180.798,107.575 180.078,107.475 179.695 C 107.375 179.313,107.296 179.720,107.301 180.600 M107.676 184.000 C 107.667 184.550,107.803 185.810,107.980 186.800 C 108.220 188.150,108.307 188.300,108.327 187.400 C 108.342 186.740,108.205 185.480,108.023 184.600 C 107.816 183.598,107.686 183.374,107.676 184.000 M193.282 315.540 C 192.778 315.683,195.911 315.800,200.245 315.800 C 204.579 315.800,207.422 315.675,206.563 315.523 C 204.607 315.176,194.519 315.189,193.282 315.540 M187.600 316.600 C 186.830 316.897,186.470 317.139,186.800 317.139 C 187.130 317.139,188.030 316.897,188.800 316.600 C 189.570 316.303,189.930 316.061,189.600 316.061 C 189.270 316.061,188.370 316.303,187.600 316.600 M210.400 316.382 C 210.730 316.605,211.345 316.791,211.767 316.794 C 212.790 316.802,212.471 316.573,211.000 316.244 C 210.124 316.048,209.962 316.085,210.400 316.382 M178.175 321.300 L 177.000 322.600 178.300 321.425 C 179.512 320.330,179.784 320.000,179.475 320.000 C 179.406 320.000,178.821 320.585,178.175 321.300 M222.400 321.325 C 222.400 321.394,222.985 321.979,223.700 322.625 L 225.000 323.800 223.825 322.500 C 222.730 321.288,222.400 321.016,222.400 321.325 " stroke="none" fill="#a7a704" fill-rule="evenodd"></path><path id="path3" d="M106.955 173.400 C 106.956 176.260,107.020 177.378,107.097 175.883 C 107.174 174.389,107.174 172.049,107.096 170.683 C 107.018 169.318,106.955 170.540,106.955 173.400 " stroke="none" fill="#8c8c04" fill-rule="evenodd"></path><path id="path4" d="M174.505 97.487 C 175.114 97.579,176.014 97.577,176.505 97.482 C 176.997 97.387,176.500 97.311,175.400 97.314 C 174.300 97.317,173.897 97.395,174.505 97.487 M165.400 98.020 C 164.611 98.235,165.022 98.270,166.600 98.123 C 167.920 98.000,169.075 97.832,169.167 97.750 C 169.464 97.482,166.634 97.685,165.400 98.020 M180.033 97.744 C 180.125 97.823,181.460 97.984,183.000 98.101 C 184.627 98.225,185.381 98.181,184.800 97.997 C 183.811 97.683,179.712 97.466,180.033 97.744 M160.296 98.784 C 159.468 98.944,158.681 99.186,158.546 99.321 C 158.239 99.628,161.122 99.190,162.200 98.766 C 163.179 98.380,162.335 98.388,160.296 98.784 M186.600 98.642 C 189.596 99.451,190.100 99.540,189.766 99.206 C 189.565 99.005,188.590 98.748,187.600 98.634 C 186.610 98.520,186.160 98.524,186.600 98.642 M154.924 100.339 C 153.782 100.703,152.729 101.123,152.584 101.273 C 152.317 101.550,157.660 100.045,157.967 99.757 C 158.308 99.436,156.936 99.699,154.924 100.339 M192.200 100.000 C 192.640 100.189,193.270 100.344,193.600 100.344 C 193.978 100.344,193.904 100.217,193.400 100.000 C 192.960 99.811,192.330 99.656,192.000 99.656 C 191.622 99.656,191.696 99.783,192.200 100.000 M197.200 101.533 C 197.530 101.736,198.250 102.024,198.800 102.171 C 199.495 102.357,199.617 102.325,199.200 102.067 C 198.870 101.864,198.150 101.576,197.600 101.429 C 196.905 101.243,196.783 101.275,197.200 101.533 M200.800 103.000 C 201.350 103.314,201.980 103.572,202.200 103.572 C 202.420 103.572,202.150 103.314,201.600 103.000 C 201.050 102.686,200.420 102.428,200.200 102.428 C 199.980 102.428,200.250 102.686,200.800 103.000 M205.200 104.984 C 205.200 105.094,205.920 105.551,206.800 106.000 C 207.680 106.449,208.400 106.726,208.400 106.616 C 208.400 106.506,207.680 106.049,206.800 105.600 C 205.920 105.151,205.200 104.874,205.200 104.984 M141.700 106.446 C 140.337 107.319,139.895 107.906,141.100 107.243 C 142.018 106.739,143.456 105.627,143.200 105.619 C 143.090 105.616,142.415 105.988,141.700 106.446 M137.795 108.949 C 136.698 109.691,135.443 110.726,135.006 111.249 C 134.298 112.098,134.341 112.087,135.406 111.150 C 136.063 110.573,137.365 109.604,138.300 108.997 C 139.779 108.037,140.278 107.600,139.895 107.600 C 139.837 107.600,138.892 108.207,137.795 108.949 M210.033 107.730 C 210.125 107.801,210.830 108.266,211.600 108.763 L 213.000 109.666 211.800 108.635 C 211.140 108.068,210.435 107.603,210.233 107.602 C 210.032 107.601,209.942 107.658,210.033 107.730 M213.200 109.759 C 213.200 109.850,214.100 110.572,215.200 111.362 C 216.300 112.152,217.197 112.664,217.193 112.499 C 217.185 112.194,213.200 109.459,213.200 109.759 M131.060 114.468 L 128.600 116.935 131.200 114.588 C 132.630 113.297,133.875 112.187,133.967 112.120 C 134.058 112.054,133.995 112.000,133.827 112.000 C 133.658 112.000,132.413 113.110,131.060 114.468 M221.800 116.800 C 222.883 117.900,223.860 118.800,223.970 118.800 C 224.080 118.800,223.283 117.900,222.200 116.800 C 221.117 115.700,220.140 114.800,220.030 114.800 C 219.920 114.800,220.717 115.700,221.800 116.800 M226.200 121.200 C 227.283 122.300,228.260 123.200,228.370 123.200 C 228.480 123.200,227.683 122.300,226.600 121.200 C 225.517 120.100,224.540 119.200,224.430 119.200 C 224.320 119.200,225.117 120.100,226.200 121.200 M123.599 122.100 C 123.010 122.904,122.913 123.184,123.345 122.833 C 124.001 122.300,124.993 120.800,124.689 120.800 C 124.613 120.800,124.122 121.385,123.599 122.100 M229.583 125.100 C 230.326 126.035,231.006 126.800,231.094 126.800 C 231.377 126.800,229.663 124.549,228.935 123.964 C 228.548 123.654,228.840 124.165,229.583 125.100 M116.600 132.000 C 116.259 132.660,116.069 133.200,116.179 133.200 C 116.289 133.200,116.659 132.660,117.000 132.000 C 117.341 131.340,117.531 130.800,117.421 130.800 C 117.311 130.800,116.941 131.340,116.600 132.000 M240.867 144.420 C 241.101 145.092,241.367 145.567,241.457 145.476 C 241.656 145.278,240.901 143.200,240.631 143.200 C 240.527 143.200,240.633 143.749,240.867 144.420 M110.229 147.029 C 110.081 147.615,110.038 148.172,110.132 148.266 C 110.227 148.360,110.424 147.958,110.571 147.371 C 110.719 146.785,110.762 146.228,110.668 146.134 C 110.573 146.040,110.376 146.442,110.229 147.029 M242.414 148.454 C 242.406 148.594,242.663 149.314,242.984 150.054 C 243.306 150.794,243.569 151.130,243.570 150.800 C 243.572 150.224,242.443 147.934,242.414 148.454 M108.954 150.977 C 108.832 151.294,108.803 151.879,108.889 152.277 C 108.987 152.728,109.124 152.512,109.254 151.700 C 109.471 150.338,109.330 149.996,108.954 150.977 M107.785 157.385 C 107.630 158.623,107.590 159.723,107.695 159.829 C 107.801 159.934,108.007 159.001,108.154 157.754 C 108.300 156.507,108.341 155.407,108.243 155.310 C 108.146 155.212,107.939 156.146,107.785 157.385 M244.867 156.420 C 245.101 157.092,245.367 157.567,245.457 157.476 C 245.656 157.278,244.901 155.200,244.631 155.200 C 244.527 155.200,244.633 155.749,244.867 156.420 M107.049 163.415 C 106.912 163.773,106.828 165.086,106.863 166.333 L 106.926 168.600 107.186 165.800 C 107.464 162.798,107.441 162.395,107.049 163.415 M246.914 167.800 C 246.917 168.900,246.995 169.303,247.087 168.695 C 247.179 168.086,247.177 167.186,247.082 166.695 C 246.987 166.203,246.911 166.700,246.914 167.800 M106.509 175.600 C 106.509 176.590,106.587 176.995,106.682 176.500 C 106.778 176.005,106.778 175.195,106.682 174.700 C 106.587 174.205,106.509 174.610,106.509 175.600 M247.701 175.800 C 247.705 176.680,247.787 176.993,247.883 176.495 C 247.979 175.998,247.975 175.278,247.875 174.895 C 247.775 174.513,247.696 174.920,247.701 175.800 M106.828 180.433 C 106.844 181.625,107.002 182.960,107.180 183.400 C 107.365 183.858,107.416 183.002,107.299 181.400 C 107.050 178.000,106.790 177.465,106.828 180.433 M107.628 187.833 C 107.644 188.475,107.816 189.360,108.010 189.800 C 108.247 190.334,108.286 190.002,108.127 188.800 C 107.846 186.680,107.588 186.180,107.628 187.833 M111.632 205.020 C 111.585 205.635,112.549 207.593,112.900 207.597 C 113.377 207.602,113.248 206.906,112.664 206.321 C 112.370 206.027,112.024 205.519,111.896 205.193 C 111.768 204.867,111.649 204.789,111.632 205.020 M233.879 252.557 C 233.715 252.974,233.675 253.409,233.791 253.524 C 234.155 253.889,234.476 253.291,234.324 252.531 C 234.183 251.835,234.162 251.836,233.879 252.557 M229.754 279.377 C 229.632 279.694,229.603 280.279,229.689 280.677 C 229.787 281.128,229.924 280.912,230.054 280.100 C 230.271 278.738,230.130 278.396,229.754 279.377 M227.502 307.800 C 227.397 308.350,227.466 308.800,227.655 308.800 C 227.845 308.800,228.000 308.350,228.000 307.800 C 228.000 307.250,227.931 306.800,227.847 306.800 C 227.762 306.800,227.607 307.250,227.502 307.800 M199.113 315.895 C 200.276 315.976,202.076 315.976,203.113 315.893 C 204.151 315.811,203.200 315.745,201.000 315.746 C 198.800 315.747,197.951 315.814,199.113 315.895 M226.616 316.450 C 226.764 316.918,226.731 317.205,226.543 317.088 C 226.354 316.972,226.200 317.294,226.200 317.804 C 226.200 318.501,226.324 318.629,226.700 318.317 C 227.309 317.811,227.369 315.600,226.773 315.600 C 226.520 315.600,226.456 315.946,226.616 316.450 M191.500 316.282 C 191.995 316.378,192.805 316.378,193.300 316.282 C 193.795 316.187,193.390 316.109,192.400 316.109 C 191.410 316.109,191.005 316.187,191.500 316.282 M206.800 316.420 C 209.214 316.850,211.106 316.813,209.000 316.377 C 208.120 316.195,206.860 316.058,206.200 316.073 C 205.300 316.093,205.450 316.180,206.800 316.420 M187.200 317.200 C 186.376 317.464,186.341 317.526,187.000 317.554 C 187.440 317.573,188.070 317.413,188.400 317.200 C 189.101 316.747,188.614 316.747,187.200 317.200 M178.967 321.029 L 177.400 322.458 179.100 321.162 C 180.653 319.978,181.032 319.600,180.667 319.600 C 180.593 319.600,179.828 320.243,178.967 321.029 M223.178 322.500 C 223.937 323.325,224.837 323.986,225.178 323.968 C 225.716 323.941,225.719 323.908,225.200 323.719 C 224.870 323.600,223.970 322.939,223.200 322.251 L 221.800 321.000 223.178 322.500 " stroke="none" fill="#6c6c04" fill-rule="evenodd"></path></g></svg>